<svg width="144" height="158" viewBox="0 0 144 158" fill="none" xmlns="http://www.w3.org/2000/svg">
<path d="M91.9427 118.094C91.9427 118.094 61.8958 106.771 61.625 81.3645C61.3594 55.9583 64.6615 33.7916 91.9427 25.1406C119.229 16.4947 144.375 41.9062 143.833 65.1458C143.297 88.3853 139.75 107.88 112.432 117.911L107.87 118.573C107.87 118.573 106.339 122.99 102.505 123.661C102.505 123.661 101.557 126.333 97.9531 126.109C94.349 125.891 98.9896 124.474 98.9896 124.474C98.9896 124.474 92.1042 121.667 91.9427 118.094Z" fill="#F4B61B" fill-opacity="0.99"/>
<path d="M88.1614 117.37C88.1614 117.37 58.1093 106.047 57.8437 80.6405C57.5729 55.2343 60.875 33.0676 88.1614 24.4165C115.443 15.7655 140.589 41.1822 140.047 64.427C139.51 87.6718 137.344 107.344 110.031 117.37L107.865 118.573C107.865 118.573 106.333 122.989 102.5 123.661C102.5 123.661 102.094 127.401 98.4896 127.177C94.8854 126.953 95.2031 123.755 95.2031 123.755C95.2031 123.755 88.3229 120.943 88.1614 117.37Z" fill="#F6D90E" fill-opacity="0.99"/>
<path d="M88.6979 25.4116C88.6979 25.4116 91.5156 16.2241 98.9271 16.3439C106.339 16.4637 109.266 25.4116 109.266 25.4116H88.6979Z" fill="#F6D910" fill-opacity="0.99"/>
<path d="M98.3594 15.6825C98.5885 13.3595 98.4583 11.0575 97.9583 8.7762C97.4583 6.50016 96.6198 4.34912 95.4375 2.3335C95.4062 2.28141 95.375 2.22412 95.3385 2.16683L97.4583 1.94287C97.4583 1.94287 100.969 9.37516 99.8542 15.0106L99.6302 16.0418L98.3594 15.6825Z" fill="#758637" fill-opacity="0.99"/>
<mask id="mask0_2_2" style="mask-type:luminance" maskUnits="userSpaceOnUse" x="56" y="0" width="43" height="19">
<path d="M56 0.900879H98.6667V18.9998H56V0.900879Z" fill="white"/>
</mask>
<g mask="url(#mask0_2_2)">
<path d="M57.3281 1.02588C57.3281 1.02588 60.9375 5.4113 68.9271 4.08838C76.9167 2.76546 84.0104 1.44775 87.6771 3.36963C91.3385 5.29671 95.9531 11.1144 97.7031 14.4217C97.7031 14.4217 88.0365 19.7655 78.724 18.328C69.4063 16.8853 58.1094 4.15088 57.3281 1.02588Z" fill="#768B39" fill-opacity="0.99"/>
</g>
<path d="M64.4896 6.875C64.4896 6.875 70.2812 9.53125 75.5104 9.44271C80.7396 9.35417 83.4427 8.94792 86.7969 9.98438C90.1562 11.026 97.5885 14.2031 97.5885 14.2031L96.6198 14.7604C96.6198 14.7604 87.9896 10.2552 83.5729 10.2344C79.1562 10.2135 73.9323 10.5417 71.1146 9.80208C68.2969 9.05729 64.4896 6.875 64.4896 6.875Z" fill="#91A63B" fill-opacity="0.99"/>
<path d="M80.9792 152.891C80.9792 152.891 51.7396 157.318 40.0781 137.031C28.4115 116.745 21.0885 97.4429 39.099 78.2137C57.1094 58.9898 88.7708 68.0835 98.8021 87.0002C108.839 105.917 114.786 123.172 97.375 143.537L94.0052 146.125C94.0052 146.125 94.7604 150.36 91.9896 152.63C91.9896 152.63 92.4323 155.203 89.4323 156.662C86.4323 158.115 89.5312 154.875 89.5312 154.875C89.5312 154.875 82.724 155.688 80.9792 152.891Z" fill="#F4B61B" fill-opacity="0.99"/>
<path d="M77.6146 154.016C77.6146 154.016 48.375 158.443 36.7083 138.151C25.0469 117.865 17.7083 98.5677 35.7396 79.3386C53.7708 60.1094 85.4114 69.2084 95.4479 88.125C105.479 107.042 112.609 123.818 95.1875 144.167L93.9896 146.109C93.9896 146.109 94.7448 150.344 91.9739 152.615C91.9739 152.615 93.3333 155.802 90.3333 157.245C87.3333 158.688 86.1458 155.974 86.1458 155.974C86.1458 155.974 79.3541 156.813 77.6146 154.016Z" fill="#F6D90E" fill-opacity="0.99"/>
<path d="M36.6146 79.8957C36.6146 79.8957 34.7396 71.2447 40.7604 67.9947C46.776 64.7499 53.1562 70.6301 53.1562 70.6301L36.6146 79.8957Z" fill="#F6D910" fill-opacity="0.99"/>
<path d="M40 67.729C39.1406 65.7655 38 63.979 36.5729 62.3696C35.1458 60.7655 33.5104 59.4165 31.6562 58.328L31.5 58.2394L33.099 57.104C33.099 57.104 39.2708 61.4946 40.9062 66.5311L41.1875 67.4582L40 67.729Z" fill="#758637" fill-opacity="0.99"/>
<mask id="mask1_2_2" style="mask-type:luminance" maskUnits="userSpaceOnUse" x="0" y="61" width="40" height="20">
<path d="M0.442688 61.6665H40V80.3332H0.442688V61.6665Z" fill="white"/>
</mask>
<g mask="url(#mask1_2_2)">
<path d="M0.432251 74.4216C0.432251 74.4216 5.30725 76.3175 11.1302 71.6612C16.9583 67.005 22.0573 62.7498 25.8698 62.6456C29.677 62.5414 35.9948 65.1456 38.9062 67.005C38.9062 67.005 33.5468 75.6508 25.4114 78.6821C17.2812 81.7185 2.46871 76.5779 0.432251 74.4216Z" fill="#768B39" fill-opacity="0.99"/>
</g>
<path d="M8.82288 75.8958C8.82288 75.8958 14.6718 75.4271 18.8281 73C22.9843 70.5729 24.9791 69.0313 28.1302 68.3542C31.2812 67.6771 38.6979 66.8906 38.6979 66.8906L38.1718 67.7656C38.1718 67.7656 29.2135 68.0365 25.651 70.0052C22.0937 71.974 18.0416 74.5885 15.4427 75.2708C12.8489 75.9531 8.82288 75.8958 8.82288 75.8958Z" fill="#91A63B" fill-opacity="0.99"/>
</svg>
