<svg width="144" height="157" viewBox="0 0 144 157" fill="none" xmlns="http://www.w3.org/2000/svg">
<path d="M61.8903 48.1966C60.694 46.6055 59.447 45.0449 58.1392 43.5234C56.4207 44.4885 54.7327 45.4796 53.0802 46.4838C55.0825 48.327 57.0189 50.2267 58.8945 52.1698C59.9286 51.083 61.0083 50.031 62.1184 49.0008C62.0424 48.7356 61.9613 48.4661 61.8903 48.1966Z" fill="#779B58"/>
<path d="M63.3958 39.5974C63.6746 39.4626 63.9535 39.3279 64.2323 39.1974C63.6341 37.7368 63.0157 36.2805 62.3922 34.8286C61.4848 35.472 60.5977 36.1371 59.7258 36.8196C60.0604 37.4325 60.3949 38.0455 60.7346 38.6584C61.0945 36.9891 62.3871 38.1802 63.3958 39.5974Z" fill="#779B58"/>
<path d="M63.8014 53.7869C63.3097 52.5784 62.8686 51.3612 62.4733 50.144C61.5 51.0526 60.5571 51.9872 59.6497 52.9436C60.2631 53.5913 60.8613 54.2521 61.4594 54.9085L63.5733 53.8956C63.6493 53.8608 63.7253 53.826 63.8014 53.7869Z" fill="#779B58"/>
<path d="M91.2152 82.0904C90.8604 82.4164 90.5106 82.7424 90.1609 83.0728C90.318 83.7205 90.4802 84.3683 90.6475 85.0116C92.1936 83.0337 93.8208 81.1036 95.5341 79.2256C95.5037 79.0605 95.4733 78.8953 95.448 78.7388C93.8512 79.7343 92.4572 80.9471 91.2152 82.0904Z" fill="#779B58"/>
<path d="M64.136 54.7648L62.1844 55.6994C62.3517 55.8864 62.5291 56.0689 62.6913 56.2602C63.8166 57.5252 65.1802 58.6163 66.5134 59.7031C65.6821 58.0643 64.9014 56.408 64.1968 54.7344C64.1766 54.7474 64.1563 54.7561 64.136 54.7648Z" fill="#779B58"/>
<path d="M96.0714 94.6057C96.4161 93.5624 96.776 92.5235 97.1511 91.4889C97.1207 90.7499 97.07 89.9891 97.0041 89.2153C96.2488 90.3934 95.5037 91.5758 94.7636 92.7669C95.1995 93.3799 95.6355 93.9928 96.0714 94.6057Z" fill="#779B58"/>
<path d="M91.5853 88.2938C92.4115 89.4545 93.2378 90.6195 94.0641 91.7845C94.9714 90.3282 95.8889 88.8806 96.8217 87.4418C96.5378 85.0248 96.1323 82.6078 95.7774 80.582C94.1046 82.4469 92.518 84.3684 91.0125 86.3376C91.1949 86.9897 91.3876 87.6417 91.5853 88.2938Z" fill="#779B58"/>
<path d="M55.772 104.661C55.4881 104.713 55.2042 104.77 54.9203 104.826C54.1194 106.513 53.3591 108.217 52.6646 109.934C53.6531 108.134 54.6922 106.378 55.772 104.661Z" fill="#779B58"/>
<path d="M66.0369 31.0512L65.388 27.1084C64.4807 27.3388 63.5784 27.5866 62.6811 27.8431C62.9853 29.4558 63.3148 31.0686 63.6645 32.6727C64.4553 32.1467 65.2562 31.6294 66.0673 31.1295C66.0622 31.1034 66.042 31.0773 66.0369 31.0512Z" fill="#779B58"/>
<path d="M88.5945 75.5135C90.3889 73.866 92.2594 72.275 94.2009 70.7535C94.1857 70.6535 94.1654 70.5492 94.1452 70.4448C92.153 71.449 90.2014 72.5271 88.2852 73.6834C88.3866 74.292 88.488 74.9049 88.5945 75.5135Z" fill="#779B58"/>
<path d="M88.1078 72.5832C90.0138 71.4443 91.9604 70.3792 93.9424 69.3968C93.4 66.6885 92.6802 64.0151 91.6714 61.459C90.1051 62.5849 88.5742 63.7412 87.0687 64.9367C87.3728 67.4841 87.7124 70.0358 88.1078 72.5832Z" fill="#779B58"/>
<path d="M66.9087 25.709C68.2014 25.4134 69.494 25.1438 70.8018 24.9047C70.153 22.3965 69.5041 19.8838 68.8553 17.3712C68.6525 16.5844 68.4498 15.7976 68.2419 15.0107C67.2585 15.3846 66.2954 15.7715 65.3373 16.1671L66.9087 25.709Z" fill="#779B58"/>
<path d="M67.6488 30.1907C68.8299 29.4996 70.0263 28.8301 71.2479 28.1954C71.253 27.7042 71.2631 27.2173 71.2733 26.7261C71.1972 26.4435 71.1263 26.161 71.0502 25.8784C69.717 26.1219 68.3889 26.3914 67.071 26.7L67.6488 30.1907Z" fill="#779B58"/>
<path d="M64.6024 41.7105C65.0789 42.9929 65.5858 44.2666 66.113 45.5359C66.2802 45.3968 66.4526 45.262 66.6199 45.1273C65.9609 43.4623 65.3019 41.8018 64.6226 40.1455C64.4047 40.2542 64.1816 40.3585 63.9637 40.4672C64.2577 40.9541 64.4858 41.4062 64.6024 41.7105Z" fill="#779B58"/>
<path d="M64.3083 15.2496C64.4655 15.2278 64.6175 15.2496 64.7544 15.3017C65.8138 14.8627 66.8885 14.441 67.9784 14.028C67.7857 13.3195 67.588 12.6065 67.3802 11.8979C65.1295 12.4022 62.8991 12.9717 60.689 13.602C60.7954 14.7105 60.912 15.819 61.0387 16.9319C61.8802 16.5407 62.7318 16.1668 63.5885 15.7973C63.6797 15.5147 63.9535 15.293 64.3083 15.2496Z" fill="#779B58"/>
<path d="M63.695 16.8579C62.8434 17.2274 62.0019 17.61 61.1655 18.0012C61.5254 20.9572 61.9715 23.9089 62.5037 26.8432C63.401 26.5867 64.3134 26.3476 65.2259 26.1172L63.695 16.8579Z" fill="#779B58"/>
<path d="M85.1373 55.2254C85.6189 55.1906 86.0397 55.4905 86.0802 55.8992C86.212 57.1511 86.3438 58.4031 86.4756 59.6638C87.7023 59.1595 88.9443 58.6813 90.2014 58.2379C89.0456 56.0383 87.6212 53.9604 85.8166 52.0737C85.1779 53.1822 84.7166 54.3342 84.382 55.5166C84.3922 55.5731 84.4074 55.6297 84.4175 55.6818C84.5392 55.434 84.8079 55.2515 85.1373 55.2254Z" fill="#779B58"/>
<path d="M88.8175 76.7609C89.1369 78.4693 89.4866 80.1777 89.877 81.8775C90.0392 81.721 90.2014 81.5645 90.3687 81.4123C91.8539 80.0473 93.4507 78.6954 95.2553 77.6434C95.1539 77.0739 95.0779 76.587 95.0272 76.2262C94.8498 74.8047 94.647 73.3745 94.4087 71.9443C92.4723 73.4832 90.6069 75.0916 88.8175 76.7609Z" fill="#779B58"/>
<path d="M86.9268 63.7023C88.3461 62.5894 89.7908 61.507 91.2659 60.4507C91.0733 60.016 90.8756 59.5812 90.6627 59.1509C89.289 59.6378 87.9304 60.1594 86.5871 60.7202C86.6986 61.7113 86.8102 62.7068 86.9268 63.7023Z" fill="#779B58"/>
<path d="M72.2365 115.459C73.0425 115.763 73.8637 116.033 74.7051 116.276C74.7558 116.085 74.8065 115.898 74.8623 115.707C73.9853 115.642 73.1084 115.559 72.2365 115.459Z" fill="#779B58"/>
<path d="M71.613 102.374C71.4964 102.365 71.3899 102.335 71.2936 102.292C70.7512 102.335 70.2088 102.387 69.6614 102.444C68.5461 104.73 67.5425 107.06 66.6554 109.416C67.3549 109.325 68.0494 109.234 68.7489 109.151C70.0922 106.826 71.4558 104.604 72.8448 102.474C72.4646 102.444 72.0641 102.409 71.613 102.374Z" fill="#779B58"/>
<path d="M78.4207 103.874C76.9709 103.443 75.506 103.048 74.0309 102.683C72.7078 104.7 71.4101 106.799 70.1276 108.995C72.4898 108.742 74.852 108.59 77.2295 108.638C77.7414 107.304 78.2889 105.978 78.8668 104.665C78.6742 104.413 78.517 104.152 78.4207 103.874Z" fill="#779B58"/>
<path d="M70.0972 95.8452C70.6548 95.9496 71.2023 96.0713 71.7498 96.2017C72.2009 95.4323 72.6673 94.6715 73.1438 93.9195C71.4406 92.724 69.7424 91.5329 68.0392 90.3418C66.8175 91.672 65.6313 93.037 64.4756 94.4411C66.0318 95.0367 67.583 95.6409 69.129 96.2495C69.3014 95.9452 69.6917 95.767 70.0972 95.8452Z" fill="#779B58"/>
<path d="M64.3286 88.8198C63.2945 90.2804 62.2958 91.7628 61.3378 93.2582C62.0272 93.5147 62.7166 93.7668 63.4009 94.0276C64.5972 92.567 65.829 91.1412 67.0912 89.7631C66.1788 89.4328 65.2562 89.1198 64.3286 88.8198Z" fill="#779B58"/>
<path d="M74.5834 56.9775C73.8687 57.5253 73.154 58.0774 72.4443 58.6338C73.5798 60.7117 74.7558 62.7679 75.9775 64.811C76.1954 64.6849 76.4185 64.5632 76.6364 64.4372C75.8761 61.968 75.1867 59.4815 74.5834 56.9775Z" fill="#779B58"/>
<path d="M51.0982 36.3723C50.0691 35.4725 49.0046 34.5987 47.9046 33.7554C45.8516 34.8248 43.8544 35.9811 41.9028 37.1896C44.8023 39.3631 47.6106 41.628 50.3074 43.9841C51.676 42.5104 53.1207 41.0889 54.6313 39.7152C53.4959 38.5676 52.3249 37.4504 51.0982 36.3723Z" fill="#779B58"/>
<path d="M73.2351 50.6265C71.8664 51.1872 70.5231 51.7741 69.2102 52.374C70.077 54.1607 70.9844 55.9343 71.9273 57.6905C72.7231 57.0732 73.519 56.4559 74.3199 55.8473C73.9194 54.1128 73.5544 52.374 73.2351 50.6265Z" fill="#779B58"/>
<path d="M79.977 105.782C79.8908 105.708 79.8046 105.63 79.7185 105.556C79.2673 106.591 78.8415 107.634 78.436 108.686C80.2507 108.773 82.0553 108.977 83.8397 109.269C83.8701 109.216 83.9005 109.164 83.9258 109.112C82.5977 108.012 81.2798 106.908 79.977 105.782Z" fill="#779B58"/>
<path d="M100.142 127.105C100.157 128.387 100.208 129.674 100.289 130.952C101.146 131.183 102.002 131.417 102.849 131.674L103.488 128.04C102.377 127.709 101.262 127.401 100.142 127.105Z" fill="#779B58"/>
<path d="M90.7286 124.992C86.0752 124.14 81.1125 123.623 76.6922 124.992C76.6111 125.145 76.53 125.301 76.4489 125.458C81.1936 126.536 85.9434 127.614 90.6932 128.692C90.683 127.457 90.6932 126.223 90.7286 124.992Z" fill="#779B58"/>
<path d="M78.7148 64.4805C78.6388 64.5196 78.5627 64.5631 78.4867 64.6065C78.9936 66.228 79.5411 67.8408 80.124 69.4449C80.1595 69.4101 80.195 69.3797 80.2305 69.3492C79.7084 67.7278 79.2065 66.1063 78.7148 64.4805Z" fill="#779B58"/>
<path d="M57.2825 23.9745C56.7452 22.9399 56.1521 21.8792 55.4222 20.9229C54.6821 21.3315 53.9572 21.7531 53.2374 22.1748C54.0231 24.4918 54.9051 26.7827 55.8936 29.0432C56.9885 28.6259 58.0987 28.2347 59.2189 27.8652C58.5904 26.561 57.9517 25.2613 57.2825 23.9745Z" fill="#779B58"/>
<path d="M50.576 85.5464C49.5825 86.4767 48.5991 87.4113 47.6207 88.3546C48.5991 88.7415 49.6078 89.0849 50.5963 89.424C53.8405 90.5282 57.0645 91.6801 60.2682 92.8626C61.2161 91.3802 62.1995 89.9109 63.2286 88.4676C59.1124 87.1939 54.8797 86.2115 50.576 85.5464Z" fill="#779B58"/>
<path d="M91.8844 125.214C91.854 126.461 91.8388 127.709 91.8489 128.957C92.1074 129.018 92.371 129.074 92.6296 129.135C92.8475 127.939 93.0757 126.727 93.324 125.496C92.8475 125.401 92.366 125.305 91.8844 125.214Z" fill="#779B58"/>
<path d="M94.4493 125.736C94.206 126.97 93.9728 128.192 93.7498 129.387C93.7599 129.392 93.7701 129.392 93.7802 129.396C95.5595 129.8 97.3438 130.205 99.1129 130.652C99.0369 129.37 98.9913 128.083 98.9761 126.801C97.4756 126.418 95.9701 126.066 94.4493 125.736Z" fill="#779B58"/>
<path d="M55.3765 40.4849C53.8912 41.8412 52.4668 43.2453 51.1184 44.7015C51.5087 45.045 51.8889 45.4014 52.2742 45.7535C53.9622 44.7276 55.6857 43.7148 57.4396 42.728C56.7705 41.9672 56.0811 41.2195 55.3765 40.4849Z" fill="#779B58"/>
<path d="M125.437 143.159C125.457 143.05 125.467 142.937 125.472 142.828C125.427 142.776 125.376 142.724 125.325 142.672C125.361 142.837 125.401 142.998 125.437 143.159Z" fill="#779B58"/>
<path d="M119.754 137.003C119.846 137.903 119.957 138.794 120.089 139.69C121.447 140.538 122.776 141.416 124.083 142.316C123.997 141.907 123.911 141.498 123.825 141.085C122.497 139.707 121.138 138.347 119.754 137.003Z" fill="#779B58"/>
<path d="M115.299 132.852C115.283 134.204 115.283 135.551 115.309 136.903C116.176 137.368 117.027 137.846 117.869 138.342C117.58 137.081 117.321 135.79 117.083 134.482C116.495 133.934 115.897 133.391 115.299 132.852Z" fill="#779B58"/>
<path d="M76.0332 115.794C75.9572 116.055 75.8761 116.316 75.8051 116.576C76.9964 116.881 78.2129 117.15 79.4295 117.402C79.6729 116.946 79.9162 116.489 80.1595 116.033C78.7858 115.959 77.407 115.885 76.0332 115.794Z" fill="#779B58"/>
<path d="M41.2387 109.286C44.341 110.421 47.6715 110.864 51.0526 110.917C51.818 108.96 52.6392 107.026 53.5314 105.104C49.1973 106.013 44.9544 107.204 41.2387 109.286Z" fill="#779B58"/>
<path d="M59.6548 28.7822C58.5244 29.1561 57.4092 29.5517 56.3041 29.9733C56.735 30.9253 57.176 31.873 57.6373 32.8163C58.1442 33.8423 58.6714 34.8595 59.2138 35.8723C60.1111 35.1768 61.0235 34.4943 61.9613 33.8336C61.2212 32.1425 60.4507 30.4559 59.6548 28.7822Z" fill="#779B58"/>
<path d="M74.0563 94.5537C73.6558 95.1971 73.2604 95.8361 72.8752 96.4838C74.0005 96.7968 75.1056 97.1576 76.1803 97.5836C76.4286 97.2402 76.677 96.9011 76.9254 96.5621C75.9673 95.8926 75.0144 95.2232 74.0563 94.5537Z" fill="#779B58"/>
<path d="M96.9485 95.8361C96.9738 95.6927 96.9941 95.5492 97.0144 95.4058C96.9738 95.5275 96.9383 95.6492 96.9028 95.7709C96.918 95.7927 96.9332 95.8144 96.9485 95.8361Z" fill="#779B58"/>
<path d="M114.158 131.83C113.367 131.135 112.577 130.448 111.776 129.77C112.166 131.769 112.597 133.765 113.083 135.751C113.438 135.929 113.793 136.108 114.148 136.29C114.128 134.803 114.128 133.317 114.158 131.83Z" fill="#779B58"/>
<path d="M92.2949 118.384C92.2189 119.171 92.1581 119.958 92.1074 120.749C92.7917 120.993 93.4811 121.24 94.1604 121.505C94.3327 120.71 94.5152 119.914 94.7028 119.11C93.9069 118.849 93.1009 118.61 92.2949 118.384Z" fill="#779B58"/>
<path d="M82.8106 116.62C82.4811 116.589 82.2175 116.398 82.1009 116.15C81.8677 116.133 81.6346 116.12 81.3963 116.107C81.1226 116.616 80.8488 117.129 80.5751 117.641C81.518 117.837 82.4557 118.028 83.3834 118.237C85.9585 118.815 88.4931 119.528 90.9719 120.358C91.0226 119.598 91.0834 118.837 91.1544 118.076C88.4373 117.385 85.6493 116.898 82.8106 116.62Z" fill="#779B58"/>
<path d="M98.9153 120.689C97.8913 120.254 96.8471 119.858 95.7978 119.489C95.6051 120.31 95.4227 121.128 95.2452 121.936C96.5125 122.449 97.7697 122.993 99.0015 123.575C99.0268 122.632 99.0623 121.688 99.113 120.749C99.0471 120.736 98.9812 120.715 98.9153 120.689Z" fill="#779B58"/>
<path d="M68.5867 113.65C68.8148 113.798 69.0429 113.933 69.2761 114.068C70.6042 113.498 71.9729 113.007 73.372 112.581C71.689 112.655 70.0517 112.951 68.5867 113.65Z" fill="#779B58"/>
<path d="M110.371 128.583C110.148 128.4 110.083 128.139 110.138 127.896C110.067 127.853 109.991 127.8 109.925 127.757C108.344 126.779 106.788 125.775 105.236 124.766L104.897 126.679C106.838 127.818 108.714 129.039 110.503 130.343C108.562 129.639 106.59 128.987 104.598 128.379L103.959 132.017C104.04 132.043 104.121 132.069 104.207 132.095C106.808 132.939 109.317 133.956 111.75 135.104C111.238 132.939 110.777 130.769 110.377 128.587C110.371 128.587 110.371 128.583 110.371 128.583Z" fill="#779B58"/>
<path d="M100.243 121.41C100.198 122.314 100.167 123.219 100.147 124.127C101.399 124.74 102.631 125.388 103.837 126.066L104.187 124.071C102.859 123.197 101.546 122.31 100.243 121.41Z" fill="#779B58"/>
<path d="M51.9852 18.1841C52.2742 19.1796 52.5783 20.1751 52.9027 21.1662C53.511 20.8097 54.1193 20.462 54.7428 20.1185C53.9825 19.3056 53.0903 18.6231 51.9852 18.1841Z" fill="#779B58"/>
<path d="M77.8226 97.1924C77.6249 97.4663 77.4222 97.7401 77.2245 98.0183C78.0406 98.3748 78.8415 98.7573 79.6171 99.179C79.8858 99.3225 80.0277 99.5746 80.0226 99.8267C80.3471 99.9397 80.6664 100.061 80.9908 100.179C81.0872 99.9919 81.1835 99.8006 81.2798 99.6137C80.1291 98.8052 78.9784 98.0009 77.8226 97.1924Z" fill="#779B58"/>
<path d="M46.2724 84.9902C45.7908 85.6771 45.3245 86.3683 44.8632 87.0681C45.4005 87.3681 45.9632 87.6463 46.5411 87.9028C47.4231 87.0464 48.3153 86.1987 49.2125 85.3554C48.2342 85.2163 47.2558 85.0902 46.2724 84.9902Z" fill="#779B58"/>
<path d="M76.2309 55.7339C76.1852 55.7687 76.1346 55.8034 76.0889 55.8382C76.6972 58.4421 77.3917 61.0243 78.1723 63.5891C78.2534 63.55 78.3346 63.5108 78.4106 63.4674C77.6452 60.8982 76.9203 58.3204 76.2309 55.7339Z" fill="#779B58"/>
<path d="M41.8622 84.6382C42.4351 85.3468 43.1346 85.951 43.9152 86.4814C44.2701 85.938 44.63 85.4033 45 84.8729C43.9558 84.7773 42.9065 84.6947 41.8622 84.6382Z" fill="#779B58"/>
<path d="M25.8438 23.3486C26.2493 24.1572 26.741 24.9179 27.2986 25.6396C27.7194 25.0875 28.1705 24.5484 28.647 24.0311C27.7194 23.779 26.7866 23.5443 25.8438 23.3486Z" fill="#779B58"/>
<path d="M80.5143 70.5277C80.7576 71.171 81.0009 71.8101 81.2493 72.4491C81.0263 71.7883 80.8032 71.1276 80.5852 70.4668C80.565 70.4842 80.5396 70.5059 80.5143 70.5277Z" fill="#779B58"/>
<path d="M76.5097 65.7062C76.8848 66.3235 77.2701 66.9321 77.6452 67.545C77.412 66.8495 77.1789 66.1496 76.9558 65.4497C76.8088 65.5366 76.6618 65.6192 76.5097 65.7062Z" fill="#779B58"/>
<path d="M29.8231 24.3613C29.1692 25.0482 28.571 25.7654 28.0235 26.5131C28.2466 26.7696 28.4797 27.0174 28.718 27.2608C29.818 26.5175 30.9332 25.7915 32.0687 25.0916C31.3286 24.8308 30.5784 24.5874 29.8231 24.3613Z" fill="#779B58"/>
<path d="M68.019 49.8699C68.2623 50.4003 68.5107 50.9263 68.7641 51.4523C70.1632 50.8176 71.5927 50.1916 73.0526 49.6004C72.6268 47.1878 72.277 44.7665 71.9982 42.3364C70.3761 43.5275 68.7692 44.7491 67.2079 46.0141C67.5678 47.1617 67.9328 48.3093 68.318 49.4483C67.8922 48.3528 67.4614 47.2573 67.0305 46.1575C66.8683 46.2923 66.7111 46.427 66.5489 46.5575C67.0254 47.666 67.5121 48.7745 68.019 49.8699Z" fill="#779B58"/>
<path d="M58.8996 104.082C58.3572 104.182 57.8097 104.282 57.2673 104.382C55.9189 106.491 54.6365 108.66 53.4199 110.89C55.4424 110.82 57.465 110.638 59.4521 110.394C61.4291 110.155 63.401 109.868 65.3779 109.594C66.2498 107.225 67.2383 104.891 68.3383 102.591C65.165 102.974 62.0019 103.526 58.8996 104.082Z" fill="#779B58"/>
<path d="M41.3148 29.3385C38.7751 27.8778 36.1037 26.5955 33.3157 25.5435C32.018 26.339 30.7406 27.1606 29.4834 28.0083C31.6581 30.0384 34.2839 31.7902 36.8134 33.5247C38.2277 32.0858 39.7281 30.6904 41.3148 29.3385Z" fill="#779B58"/>
<path d="M75.2525 51.9609C75.435 52.8825 75.6226 53.7998 75.8304 54.717C75.8659 54.6866 75.9014 54.6605 75.9419 54.6344C75.7088 53.7432 75.4756 52.8521 75.2525 51.9609Z" fill="#779B58"/>
<path d="M71.248 29.3691C69.9857 30.0386 68.7337 30.7298 67.5171 31.4644C67.4461 31.5253 67.3599 31.5775 67.2636 31.6166C66.1231 32.3078 65.0079 33.0337 63.9129 33.7728C64.288 35.4464 64.6986 37.1113 65.1346 38.7719C67.1977 37.8199 69.3065 36.9374 71.4609 36.1593C71.324 33.8945 71.2581 31.634 71.248 29.3691Z" fill="#779B58"/>
<path d="M65.3728 6.02946C65.241 5.70343 65.0991 5.38174 64.9571 5.06006C63.3604 5.64257 61.7788 6.25551 60.2124 6.89019C60.3037 8.78552 60.4405 10.6852 60.6028 12.5762C62.7419 11.9719 64.9064 11.4242 67.0912 10.9373C66.5894 9.28544 66.0318 7.64658 65.3728 6.02946Z" fill="#779B58"/>
<mask id="mask0_8_4" style="mask-type:luminance" maskUnits="userSpaceOnUse" x="59" y="0" width="6" height="6">
<path d="M59.3811 0.552246H64.5719V5.93396H59.3811V0.552246Z" fill="white"/>
</mask>
<g mask="url(#mask0_8_4)">
<path d="M62.9041 1.12158C61.9511 0.965084 60.9627 0.89553 60.0299 0.939001C60.0502 2.56047 60.1009 4.18629 60.1668 5.80775C61.6115 5.22959 63.0663 4.66881 64.5313 4.13412C64.0396 3.10821 63.5074 2.09968 62.9041 1.12158Z" fill="#779B58"/>
</g>
<path d="M82.0553 100.57C82.4963 100.736 82.9374 100.909 83.3784 101.079C82.988 100.81 82.6028 100.536 82.2125 100.266C82.1618 100.366 82.106 100.47 82.0553 100.57Z" fill="#779B58"/>
<path d="M42.2881 29.9121C40.671 31.2771 39.1452 32.6943 37.7106 34.1549C38.8208 34.9287 39.9208 35.7111 41.0056 36.511C42.9521 35.2938 44.9493 34.1462 46.9973 33.0638C45.4867 31.9466 43.9152 30.8946 42.2881 29.9121Z" fill="#779B58"/>
<path d="M71.5318 37.2153C69.4433 37.9848 67.4004 38.8498 65.3981 39.7845C65.8594 41.5016 66.3511 43.2143 66.8732 44.9227C68.5055 43.6143 70.1783 42.3493 71.8714 41.1234C71.7345 39.8236 71.623 38.5195 71.5318 37.2153Z" fill="#779B58"/>
<path d="M45 84.8726C44.63 85.4029 44.2701 85.9376 43.9152 86.481C44.2194 86.6853 44.5387 86.8809 44.8631 87.0678C45.3244 86.368 45.7908 85.6768 46.2724 84.9899C45.8466 84.9465 45.4258 84.9117 45 84.8726Z" fill="#5F7D43"/>
<path d="M103.488 128.04L102.849 131.674C103.219 131.782 103.589 131.9 103.959 132.017L104.598 128.379C104.228 128.266 103.858 128.148 103.488 128.04Z" fill="#5F7D43"/>
<path d="M68.3383 102.592C67.2383 104.891 66.2447 107.226 65.3779 109.595C65.8037 109.534 66.2295 109.477 66.6553 109.417C67.5424 107.06 68.5461 104.73 69.6613 102.444C69.2203 102.492 68.7793 102.539 68.3383 102.592Z" fill="#5F7D43"/>
<path d="M55.772 104.661C54.6922 106.378 53.6531 108.134 52.6646 109.934C53.3591 108.217 54.1194 106.513 54.9204 104.826C54.454 104.918 53.9927 105.009 53.5314 105.104C52.6392 107.026 51.8181 108.96 51.0526 110.917C51.8434 110.93 52.6291 110.921 53.4199 110.89C54.6365 108.66 55.919 106.491 57.2674 104.383C56.7655 104.474 56.2687 104.565 55.772 104.661Z" fill="#5F7D43"/>
<path d="M67.071 26.6996C68.389 26.391 69.7171 26.1215 71.0503 25.878C70.9692 25.552 70.883 25.2303 70.8019 24.9043C69.494 25.1434 68.2014 25.4129 66.9088 25.7085L67.071 26.6996Z" fill="#5F7D43"/>
<path d="M87.0687 64.9369C88.5743 63.7414 90.1051 62.5851 91.6715 61.4592C91.5397 61.1201 91.4079 60.7854 91.266 60.4507C89.7908 61.507 88.3461 62.5895 86.9268 63.698C86.9724 64.1109 87.0231 64.5239 87.0687 64.9369Z" fill="#5F7D43"/>
<path d="M86.5921 60.72C87.9304 60.1592 89.2889 59.6376 90.6677 59.1507C90.5156 58.842 90.3585 58.5377 90.2014 58.2378C88.9442 58.6812 87.7023 59.1594 86.4756 59.6636C86.5161 60.0158 86.5516 60.3679 86.5921 60.72Z" fill="#5F7D43"/>
<path d="M88.2853 73.6832C90.2014 72.5268 92.153 71.4488 94.1452 70.4446C94.0843 70.0968 94.0134 69.7447 93.9424 69.3926C91.9604 70.3794 90.0138 71.4444 88.1078 72.5833C88.1636 72.9485 88.2244 73.3137 88.2853 73.6832Z" fill="#5F7D43"/>
<path d="M90.3687 81.4125C90.2014 81.5646 90.0392 81.7255 89.877 81.8776C89.9683 82.2776 90.0646 82.6775 90.1609 83.0731C90.5107 82.7427 90.8604 82.4167 91.2153 82.0906C92.4572 80.9473 93.8512 79.7345 95.448 78.739C95.377 78.3434 95.3111 77.9783 95.2554 77.6436C93.4507 78.6956 91.854 80.0475 90.3687 81.4125Z" fill="#5F7D43"/>
<path d="M91.0125 86.3379C92.518 84.3687 94.1046 82.4473 95.7774 80.5824C95.6913 80.1042 95.6102 79.6521 95.5341 79.2261C93.8208 81.104 92.1936 83.0341 90.6475 85.0121C90.7641 85.4555 90.8908 85.8945 91.0125 86.3379Z" fill="#5F7D43"/>
<path d="M65.2867 15.884L65.3374 16.1666C66.2955 15.771 67.2586 15.3841 68.242 15.0103C68.1558 14.6842 68.0646 14.3582 67.9784 14.0278C66.8886 14.4408 65.8139 14.8625 64.7545 15.3015C65.0282 15.3972 65.2462 15.6102 65.2867 15.884Z" fill="#5F7D43"/>
<path d="M88.5945 75.5135C88.6654 75.9308 88.7415 76.3438 88.8175 76.7611C90.6069 75.0918 92.4724 73.4834 94.4088 71.9445C94.3429 71.5446 94.2719 71.149 94.2009 70.7534C92.2595 72.2793 90.389 73.8659 88.5945 75.5135Z" fill="#5F7D43"/>
<path d="M76.9253 96.5625C76.677 96.9016 76.4286 97.2406 76.1802 97.5841C76.5299 97.7232 76.8797 97.8666 77.2244 98.0188C77.4221 97.7406 77.6249 97.4667 77.8226 97.1928C77.5235 96.9842 77.2244 96.7712 76.9253 96.5625Z" fill="#5F7D43"/>
<path d="M80.2304 69.3491C80.195 69.3796 80.1595 69.41 80.124 69.4448C80.2558 69.8056 80.3825 70.1664 80.5143 70.5272C80.5397 70.5054 80.565 70.4837 80.5853 70.4663C80.4636 70.0925 80.3521 69.7186 80.2304 69.3491Z" fill="#5F7D43"/>
<path d="M28.6471 24.0308C28.1706 24.5481 27.7194 25.0871 27.2987 25.6392C27.5319 25.9391 27.7752 26.2304 28.0236 26.513C28.571 25.7653 29.1692 25.048 29.8231 24.3611C29.4328 24.2438 29.0374 24.1351 28.6471 24.0308Z" fill="#5F7D43"/>
<path d="M63.5682 16.093C63.553 15.9886 63.5631 15.8887 63.5885 15.7974C62.7318 16.1669 61.8802 16.5407 61.0387 16.932C61.0793 17.2884 61.1249 17.6449 61.1705 18.0013C62.0019 17.6101 62.8433 17.2319 63.6949 16.8581L63.5682 16.093Z" fill="#5F7D43"/>
<path d="M32.0686 25.0913C30.9332 25.7912 29.818 26.5172 28.718 27.2605C28.9663 27.5126 29.2249 27.7648 29.4834 28.0082C30.7405 27.1605 32.018 26.3389 33.3157 25.5434C32.9051 25.3869 32.4843 25.2348 32.0686 25.0913Z" fill="#5F7D43"/>
<path d="M81.2798 99.6138C81.1834 99.8007 81.0871 99.992 80.9908 100.179C81.3457 100.309 81.7005 100.44 82.0553 100.57C82.106 100.47 82.1618 100.366 82.2125 100.266C81.9033 100.048 81.594 99.8311 81.2798 99.6138Z" fill="#5F7D43"/>
<path d="M65.2259 26.1172C64.3134 26.3476 63.401 26.5867 62.5038 26.8432C62.5595 27.1779 62.6203 27.5126 62.6812 27.843C63.5784 27.5865 64.4807 27.3387 65.3881 27.1083L65.2259 26.1172Z" fill="#5F7D43"/>
<path d="M94.7636 92.7671C95.5037 91.576 96.2488 90.3936 97.0041 89.2155C96.9534 88.6287 96.8875 88.0331 96.8216 87.4419C95.8889 88.8808 94.9714 90.3284 94.064 91.7846C94.2972 92.1107 94.5304 92.4367 94.7636 92.7671Z" fill="#5F7D43"/>
<path d="M67.3296 89.8458C67.2485 89.8197 67.1724 89.7936 67.0913 89.7632C65.8291 91.1412 64.5973 92.5671 63.401 94.0277C63.7609 94.1624 64.1157 94.3059 64.4757 94.4407C65.6314 93.0365 66.8176 91.6716 68.0392 90.3413C67.801 90.1762 67.5628 90.011 67.3296 89.8458Z" fill="#5F7D43"/>
<path d="M83.8397 109.269C83.9614 109.286 84.0779 109.308 84.1945 109.33C84.1084 109.256 84.0171 109.186 83.9259 109.112C83.9005 109.164 83.8701 109.217 83.8397 109.269Z" fill="#5F7D43"/>
<path d="M94.7028 119.111C94.5152 119.915 94.3328 120.711 94.1604 121.506C94.5203 121.645 94.8802 121.793 95.2452 121.936C95.4226 121.128 95.6051 120.311 95.7977 119.489C95.4328 119.359 95.0678 119.233 94.7028 119.111Z" fill="#5F7D43"/>
<path d="M91.1544 118.076C91.0835 118.837 91.0226 119.598 90.972 120.358C91.3521 120.484 91.7273 120.615 92.1024 120.75C92.1581 119.958 92.219 119.172 92.2899 118.385C91.9148 118.28 91.5346 118.172 91.1544 118.076Z" fill="#5F7D43"/>
<path d="M74.8622 115.707C74.8064 115.898 74.7557 116.085 74.705 116.277C75.07 116.381 75.435 116.481 75.805 116.576C75.876 116.316 75.9571 116.055 76.0332 115.794C75.6428 115.768 75.2525 115.737 74.8622 115.707Z" fill="#5F7D43"/>
<path d="M42.288 29.9122C41.9636 29.7209 41.6392 29.5297 41.3148 29.3384C39.7281 30.6903 38.2277 32.0857 36.8134 33.5246C36.935 33.6072 37.0567 33.6942 37.1784 33.7768C37.3609 33.9028 37.5332 34.0289 37.7106 34.155C39.1452 32.6943 40.671 31.2772 42.288 29.9122Z" fill="#5F7D43"/>
<path d="M73.377 102.518C73.2097 102.505 73.0221 102.492 72.8396 102.474C71.4558 104.604 70.0922 106.826 68.7438 109.151C69.2051 109.095 69.6664 109.043 70.1276 108.995C71.4101 106.799 72.7078 104.7 74.0309 102.683C73.8129 102.626 73.5949 102.574 73.377 102.518Z" fill="#5F7D43"/>
<path d="M78.8668 104.665C78.2889 105.978 77.7415 107.304 77.2295 108.638C77.4221 108.643 77.6147 108.643 77.8023 108.647C78.0152 108.656 78.223 108.673 78.4359 108.686C78.8415 107.634 79.2673 106.591 79.7184 105.556C79.4092 105.278 79.1101 104.978 78.8668 104.665Z" fill="#5F7D43"/>
<path d="M123.825 141.085C123.911 141.498 123.997 141.907 124.083 142.316C124.535 142.629 124.986 142.942 125.427 143.255C125.437 143.224 125.432 143.194 125.437 143.159C125.401 142.998 125.361 142.837 125.325 142.672C124.829 142.142 124.332 141.611 123.825 141.085Z" fill="#5F7D43"/>
<path d="M96.9027 95.7712C96.9382 95.6494 96.9737 95.5277 97.0143 95.406C97.1714 94.254 97.2069 92.9151 97.1511 91.4893C96.776 92.5239 96.4161 93.5628 96.0714 94.6061C96.3502 94.993 96.6239 95.3799 96.9027 95.7712Z" fill="#5F7D43"/>
<path d="M117.083 134.482C117.321 135.79 117.58 137.081 117.869 138.342C118.614 138.781 119.354 139.229 120.089 139.69C119.957 138.794 119.846 137.903 119.754 137.003C118.872 136.156 117.985 135.312 117.083 134.482Z" fill="#5F7D43"/>
<path d="M99.3056 120.767C99.3056 120.767 99.3056 120.767 99.3005 120.767C99.2397 120.767 99.1738 120.758 99.113 120.75C99.0623 121.688 99.0268 122.632 99.0015 123.575C99.3867 123.753 99.7669 123.94 100.147 124.127C100.167 123.219 100.198 122.314 100.243 121.41C99.9291 121.193 99.6199 120.98 99.3056 120.767Z" fill="#5F7D43"/>
<path d="M73.1439 93.9189C72.6674 94.671 72.201 95.4317 71.7498 96.2012C72.125 96.2881 72.5001 96.3838 72.8752 96.4837C73.2554 95.836 73.6508 95.1926 74.0563 94.5536C73.7522 94.3406 73.448 94.1276 73.1439 93.9189Z" fill="#5F7D43"/>
<path d="M104.187 124.07L103.837 126.066C104.192 126.266 104.547 126.47 104.897 126.679L105.236 124.766C104.882 124.535 104.537 124.301 104.187 124.07Z" fill="#5F7D43"/>
<path d="M115.299 132.852C114.918 132.508 114.538 132.169 114.158 131.83C114.128 133.317 114.128 134.803 114.148 136.29C114.538 136.49 114.924 136.694 115.314 136.903C115.283 135.551 115.283 134.204 115.299 132.852Z" fill="#5F7D43"/>
<path d="M110.377 128.587C110.777 130.77 111.238 132.939 111.75 135.104C112.196 135.317 112.642 135.53 113.083 135.751C112.597 133.765 112.166 131.769 111.776 129.77C111.309 129.374 110.843 128.979 110.377 128.587Z" fill="#5F7D43"/>
<path d="M80.1595 116.033C79.9162 116.489 79.6729 116.946 79.4296 117.402C79.8098 117.485 80.195 117.563 80.5752 117.641C80.8489 117.128 81.1227 116.615 81.3964 116.107C80.9858 116.081 80.5701 116.059 80.1595 116.033Z" fill="#5F7D43"/>
<path d="M63.9636 40.4671C64.1816 40.3584 64.4046 40.2541 64.6226 40.1454C64.4959 39.8281 64.3641 39.5151 64.2323 39.1978C63.9535 39.3282 63.6747 39.4629 63.3959 39.5977C63.5986 39.8846 63.7913 40.1802 63.9636 40.4671Z" fill="#5F7D43"/>
<path d="M62.1185 49.0005C61.0033 50.0308 59.9286 51.0827 58.8945 52.1695C59.1429 52.4303 59.4014 52.6825 59.6498 52.9433C60.5572 51.9869 61.5 51.0523 62.4733 50.1438C62.3516 49.7612 62.23 49.383 62.1185 49.0005Z" fill="#5F7D43"/>
<path d="M64.1968 54.7343C64.0599 54.4213 63.9281 54.104 63.8014 53.7866C63.7253 53.8257 63.6493 53.8605 63.5733 53.8996L61.4594 54.9082C61.6977 55.1733 61.9461 55.4342 62.1843 55.6993L64.1359 54.7647C64.1562 54.756 64.1765 54.7473 64.1968 54.7343Z" fill="#5F7D43"/>
<path d="M67.0913 10.937C64.9065 11.4239 62.742 11.9716 60.6028 12.5759C60.6333 12.9193 60.6586 13.2584 60.689 13.6018C62.8992 12.9715 65.1296 12.402 67.3803 11.8977C67.284 11.576 67.1876 11.2587 67.0913 10.937Z" fill="#5F7D43"/>
<path d="M76.6365 64.4414C76.4185 64.5631 76.1955 64.6848 75.9775 64.8109C76.1346 65.0804 76.2968 65.35 76.459 65.6195C76.4743 65.6456 76.4945 65.676 76.5097 65.7064C76.6618 65.6195 76.8088 65.5369 76.9558 65.4499C76.8494 65.1152 76.7429 64.7761 76.6365 64.4414Z" fill="#5F7D43"/>
<path d="M67.0202 31.6815C66.9746 31.6902 66.9341 31.6902 66.8935 31.6902C66.5032 31.6902 66.1686 31.4554 66.0673 31.1294C65.2562 31.6293 64.4553 32.1466 63.6645 32.6726C63.7456 33.0378 63.8267 33.4073 63.9078 33.7724C65.0078 33.0334 66.123 32.3075 67.2636 31.6163C67.1875 31.6467 67.1064 31.6728 67.0202 31.6815Z" fill="#5F7D43"/>
<path d="M66.5489 46.5576C66.7111 46.4272 66.8682 46.2925 67.0305 46.1577C66.8936 45.8143 66.7567 45.4709 66.6199 45.1274C66.4526 45.2622 66.2853 45.397 66.118 45.5361C66.2599 45.8751 66.4019 46.2186 66.5489 46.5576Z" fill="#5F7D43"/>
<path d="M71.4609 36.1592C69.3014 36.9373 67.1926 37.8198 65.1295 38.7718C65.2208 39.1109 65.3069 39.4456 65.3982 39.7847C67.4005 38.85 69.4433 37.985 71.5318 37.2155C71.5065 36.8634 71.4862 36.5113 71.4609 36.1592Z" fill="#5F7D43"/>
<path d="M71.8714 41.1235C70.1783 42.3494 68.5055 43.6144 66.8733 44.9229C66.9848 45.2881 67.0912 45.6532 67.2078 46.014C68.7691 44.749 70.376 43.5275 71.9981 42.3364C71.9525 41.9321 71.912 41.5278 71.8714 41.1235Z" fill="#5F7D43"/>
<path d="M49.2125 85.3555C48.3153 86.1988 47.4231 87.0465 46.536 87.9029C46.8909 88.0594 47.2558 88.2115 47.6208 88.355C48.5991 87.4116 49.5826 86.477 50.5761 85.5467C50.125 85.4772 49.6687 85.4163 49.2125 85.3555Z" fill="#5F7D43"/>
<path d="M64.5313 4.13428C63.0663 4.66897 61.6115 5.22975 60.1668 5.80791C60.182 6.16872 60.1972 6.52953 60.2124 6.89034C61.7788 6.25566 63.3604 5.64272 64.9571 5.05586C64.8203 4.74722 64.6733 4.43857 64.5313 4.13428Z" fill="#5F7D43"/>
<path d="M91.1747 125.07C91.0277 125.044 90.8756 125.018 90.7286 124.992C90.6931 126.222 90.683 127.457 90.6931 128.692C91.0784 128.783 91.4637 128.87 91.8489 128.957C91.8388 127.709 91.854 126.462 91.8844 125.214C91.6461 125.166 91.413 125.114 91.1747 125.07Z" fill="#5F7D43"/>
<path d="M93.324 125.497C93.0757 126.727 92.8475 127.94 92.6296 129.135C93.0047 129.218 93.3798 129.305 93.7499 129.387C93.9678 128.192 94.2061 126.97 94.4494 125.736C94.0743 125.657 93.6992 125.575 93.324 125.497Z" fill="#5F7D43"/>
<path d="M74.3199 55.8472C73.5189 56.4558 72.7231 57.0731 71.9323 57.6903C72.0996 58.0033 72.2719 58.3207 72.4443 58.6337C73.154 58.0772 73.8687 57.5251 74.5835 56.9774C74.4973 56.6036 74.4111 56.2254 74.3199 55.8472Z" fill="#5F7D43"/>
<path d="M98.976 126.801C98.9912 128.083 99.0368 129.37 99.1129 130.652C99.5032 130.748 99.8986 130.852 100.289 130.952C100.208 129.674 100.157 128.387 100.142 127.105C99.7516 127.001 99.3663 126.901 98.976 126.801Z" fill="#5F7D43"/>
<path d="M71.248 28.1953C70.0263 28.83 68.83 29.4994 67.6489 30.1906L67.7553 30.8427C67.7959 31.0774 67.6996 31.3035 67.5171 31.4643C68.7387 30.7297 69.9858 30.0385 71.248 29.369C71.248 28.9778 71.248 28.5866 71.248 28.1953Z" fill="#5F7D43"/>
<path d="M73.0526 49.6006C71.5927 50.1918 70.1632 50.8178 68.7641 51.4525C68.9111 51.7611 69.0581 52.0697 69.2102 52.374C70.5231 51.7741 71.8664 51.1873 73.2351 50.6265C73.1692 50.2874 73.1134 49.944 73.0526 49.6006Z" fill="#5F7D43"/>
<path d="M63.2286 88.4678C62.2047 89.911 61.2162 91.3803 60.2683 92.8627C60.6282 92.9931 60.983 93.1279 61.3379 93.2626C62.2959 91.7629 63.2945 90.2805 64.3286 88.8199C63.9637 88.7025 63.5987 88.5808 63.2286 88.4678Z" fill="#5F7D43"/>
<path d="M75.7798 125.305C76.0028 125.353 76.2259 125.405 76.4489 125.457C76.53 125.301 76.6111 125.144 76.6922 124.992C76.383 125.088 76.0789 125.188 75.7798 125.305Z" fill="#5F7D43"/>
<path d="M54.6314 39.7192C53.1208 41.0886 51.6761 42.5101 50.3074 43.9837C50.5761 44.2228 50.8498 44.4619 51.1185 44.701C52.4669 43.2447 53.8913 41.8406 55.3766 40.4843C55.1282 40.2278 54.8849 39.9714 54.6314 39.7192Z" fill="#5F7D43"/>
<path d="M75.9419 54.6343C75.9014 54.6604 75.8659 54.6864 75.8304 54.7169C75.9115 55.0907 76.0028 55.4646 76.0889 55.8384C76.1346 55.8036 76.1853 55.7689 76.2309 55.7341C76.1346 55.3689 76.0382 54.9994 75.9419 54.6343Z" fill="#5F7D43"/>
<path d="M59.2189 27.8647C58.0986 28.2342 56.9885 28.6255 55.8935 29.0428C56.0253 29.3558 56.1673 29.6644 56.3041 29.9731C57.4092 29.5514 58.5295 29.1558 59.6548 28.782C59.5078 28.4733 59.3659 28.169 59.2189 27.8647Z" fill="#5F7D43"/>
<path d="M54.7429 20.1182C54.1194 20.4616 53.5111 20.8094 52.9028 21.1658C53.0143 21.5005 53.1208 21.8396 53.2374 22.1743C53.9572 21.7527 54.6821 21.331 55.4222 20.9224C55.2093 20.6442 54.9811 20.3746 54.7429 20.1182Z" fill="#5F7D43"/>
<path d="M46.9972 33.064C44.9493 34.1464 42.947 35.2984 41.0055 36.5112C41.3046 36.7329 41.6037 36.9633 41.9028 37.1894C43.8544 35.9809 45.8516 34.8245 47.9046 33.7552C47.6055 33.5248 47.3064 33.29 46.9972 33.064Z" fill="#5F7D43"/>
<path d="M61.9613 33.8335C61.0235 34.4943 60.1111 35.1767 59.2139 35.8723C59.3811 36.1896 59.5535 36.5026 59.7258 36.82C60.5977 36.1375 61.4848 35.4724 62.3922 34.829C62.2452 34.4986 62.1083 34.1639 61.9613 33.8335Z" fill="#5F7D43"/>
<path d="M57.4447 42.728C55.6857 43.7148 53.9673 44.7277 52.2793 45.7536C52.5429 45.997 52.8166 46.2361 53.0802 46.4839C54.7328 45.4797 56.4208 44.4886 58.1392 43.5235C57.9111 43.2584 57.6779 42.9932 57.4447 42.728Z" fill="#5F7D43"/>
<path d="M78.4106 63.4678C78.3346 63.5112 78.2535 63.5504 78.1774 63.5938C78.2788 63.9286 78.3802 64.2676 78.4866 64.6067C78.5627 64.5632 78.6387 64.5198 78.7148 64.4806C78.6134 64.1416 78.512 63.8068 78.4106 63.4678Z" fill="#5F7D43"/>
<path d="M77.6198 26.2565C77.5793 26.2696 77.5337 26.2783 77.4931 26.2826C77.5134 26.3391 77.5337 26.3913 77.5489 26.4435C77.7415 26.9955 77.924 27.552 78.1014 28.1084C78.0913 27.3955 78.0761 26.6782 78.0608 25.9609C77.9595 26.0957 77.8074 26.2044 77.6198 26.2565Z" fill="#AEC78B"/>
<mask id="mask1_8_4" style="mask-type:luminance" maskUnits="userSpaceOnUse" x="71" y="0" width="8" height="26">
<path d="M71.0604 0.552246H78.8466V25.9654H71.0604V0.552246Z" fill="white"/>
</mask>
<g mask="url(#mask1_8_4)">
<path d="M72.8954 18.8534C73.2705 18.6013 73.8078 18.6578 74.1069 18.9752C75.8051 20.7966 77.118 22.8267 78.0355 25.022C78.0203 24.4612 78.0051 23.9048 77.9848 23.3483L77.4171 4.44281C77.3816 3.17781 77.2853 1.83021 76.9406 0.591285C75.7696 0.55216 73.9498 1.11294 73.4783 1.83455C73.4074 1.95193 73.3263 2.05626 73.2401 2.16059C72.1553 7.90745 71.8055 13.7543 72.1705 19.5664C72.3581 19.3055 72.5912 19.0578 72.8954 18.8534Z" fill="#AEC78B"/>
</g>
<path d="M99.6249 99.2183C100.101 99.1618 100.537 99.4443 100.603 99.853C100.694 100.383 100.796 100.914 100.907 101.44C103.138 104.622 105.338 107.821 107.487 111.047C105.064 102.579 104.111 93.8888 104.653 85.1511C104.091 82.9906 103.244 80.8257 101.247 79.4868C100.299 79.7433 99.9443 80.7127 99.7466 81.5517C98.4387 87.1594 98.2512 93.1802 99.2194 99.0401C99.2751 99.1227 99.3309 99.2009 99.3867 99.2792C99.4627 99.2531 99.5387 99.227 99.6249 99.2183Z" fill="#AEC78B"/>
<path d="M105.617 83.6731C106.098 83.6992 106.458 84.0513 106.433 84.4643C105.688 94.8103 107.071 105.091 110.539 115.024C110.61 115.224 110.579 115.433 110.468 115.603C112.065 118.076 113.656 120.558 115.294 123.01C115.01 109.551 113.23 95.9754 112.212 82.5472C111.406 71.9272 110.594 61.2638 108.095 50.8351C107.776 49.4962 107.011 47.853 105.424 47.8486C101.784 59.6293 103.102 72.0663 104.542 84.1904C104.582 84.5034 104.618 84.8207 104.653 85.1381C104.669 84.8816 104.679 84.6251 104.699 84.3686C104.729 83.96 105.115 83.6426 105.617 83.6731Z" fill="#D6E3A0"/>
<mask id="mask2_8_4" style="mask-type:luminance" maskUnits="userSpaceOnUse" x="0" y="37" width="79" height="50">
<path d="M0.432251 37.0938H78.8465V86.0595H0.432251V37.0938Z" fill="white"/>
</mask>
<g mask="url(#mask2_8_4)">
<path d="M34.9683 56.1469C51.1438 63.6152 64.8609 74.3874 78.365 85.0856C78.3093 84.8204 78.2586 84.5552 78.2079 84.29C78.0558 84.2466 77.9139 84.1683 77.8074 84.0553C60.6535 65.7453 38.395 50.9739 13.4448 41.3364C13.0038 41.1668 12.8111 40.7278 13.0088 40.3496C13.2015 39.9757 13.7185 39.8062 14.1545 39.9757C38.7194 49.4654 60.6941 63.8804 77.8328 81.7209C77.8277 81.6948 77.8226 81.6731 77.8226 81.647C77.7618 81.0515 77.8632 80.2907 78.2839 79.7299C78.066 79.5126 77.8531 79.2865 77.6554 79.0474C77.5793 78.9735 77.5084 78.904 77.4273 78.8301C69.9909 72.0921 62.1591 65.654 54.1093 59.4594C48.8273 55.3905 43.3982 51.4216 37.4167 48.1396C26.4167 42.0971 13.6222 38.489 0.594543 37.75C9.34892 46.6876 22.9849 50.6174 34.9683 56.1469Z" fill="#AEC78B"/>
</g>
<path d="M70.7766 83.777C67.6084 81.7947 64.2019 80.1602 60.4761 79.1734C59.8881 79.0169 59.4927 78.9865 59.2646 79.0691C59.7411 79.2343 60.2227 79.3994 60.6991 79.5733C61.201 79.6603 61.6978 79.8124 62.1286 79.982C63.4821 80.521 64.8153 81.0948 66.1282 81.6947C67.6996 82.3511 69.2508 83.0467 70.7766 83.777Z" fill="#AEC78B"/>
<path d="M71.7751 100.892C77.341 101.344 77.4475 101.353 80.0023 102.305C80.3673 102.439 80.565 102.77 80.5092 103.096C83.3834 103.317 86.1664 104.374 88.7415 105.552C91.0479 106.608 93.2783 107.786 95.4276 109.064C95.0221 108.604 94.6217 108.147 94.2212 107.682C92.3558 106.986 90.3281 105.943 89.3143 105.235C87.3373 103.848 85.3553 102.465 83.3783 101.079C82.9373 100.909 82.4963 100.735 82.0553 100.57C81.7005 100.44 81.3456 100.309 80.9908 100.179C80.6664 100.061 80.347 99.9398 80.0226 99.8267C80.0175 99.9571 79.977 100.088 79.8908 100.209C79.7286 100.435 79.4447 100.557 79.1558 100.557C78.9986 100.557 78.8364 100.518 78.6945 100.444C75.9318 98.9486 72.9157 97.8923 69.7272 97.3011C69.2862 97.2185 68.9972 96.8577 69.053 96.4795C64.8405 95.3927 60.5571 94.5059 56.2281 93.8364C49.8765 92.8496 43.4235 92.3106 36.9705 92.241C31.2627 92.1758 23.1064 91.6498 17.7991 93.5408C18.7419 95.4144 23.4765 95.5014 25.5295 95.8361C28.9613 96.3969 32.4134 96.8446 35.8705 97.2489C42.9926 98.0792 50.1401 98.7008 57.2419 99.6268C61.8143 100.222 66.4069 100.966 70.9134 101.952C70.8475 101.835 70.817 101.7 70.8323 101.561C70.8779 101.153 71.2935 100.848 71.7751 100.892Z" fill="#AEC78B"/>
<path d="M52.5631 76.9871C54.2461 77.4523 55.9088 77.9522 57.5613 78.4912C57.6982 78.2826 57.8604 78.0913 58.0733 77.9478C59.0871 77.248 60.4659 77.6131 60.988 77.7479C67.882 79.5737 73.6608 83.46 78.8617 87.6984C78.8922 87.6375 78.9327 87.581 78.9834 87.5288C78.7502 86.729 78.5424 85.9248 78.37 85.1119C65.3576 75.357 49.8866 68.0234 33.3309 63.785C28.9461 62.6591 23.659 61.907 20.2475 64.5283C20.8 64.1067 37.9894 72.3488 39.8599 73.1008C43.1396 74.418 46.4295 75.7134 49.7143 77.0306C50.429 76.5742 51.6253 76.7307 52.5631 76.9871Z" fill="#AEC78B"/>
<path d="M73.377 102.518C73.595 102.574 73.813 102.626 74.0309 102.683C75.506 103.048 76.971 103.444 78.4208 103.878C78.36 103.696 78.3346 103.509 78.3295 103.317C77.0825 102.883 76.3577 102.77 73.377 102.518Z" fill="#AEC78B"/>
<path d="M76.0332 115.794C77.4069 115.885 78.7857 115.959 80.1594 116.033C80.5751 116.059 80.9857 116.081 81.3963 116.107C81.6346 116.12 81.8677 116.133 82.1009 116.15C82.0553 116.042 82.0299 115.92 82.0452 115.794C82.1009 115.385 82.5318 115.085 83.0032 115.137C87.0534 115.533 91.0023 116.35 94.794 117.554C91.7677 115.342 88.8074 113.059 85.9078 110.721C81.6447 110.729 77.3866 111.36 73.3719 112.581C71.9728 113.007 70.6041 113.498 69.276 114.068C68.7742 114.281 68.2774 114.503 67.7857 114.737C69.2507 115.063 70.741 115.285 72.2364 115.459C73.1083 115.559 73.9852 115.637 74.8622 115.707C75.2525 115.737 75.6428 115.768 76.0332 115.794Z" fill="#AEC78B"/>
<path d="M78.2991 79.7087C78.3599 79.6261 78.4309 79.5478 78.5069 79.4783C78.512 79.4131 78.5069 79.3522 78.512 79.287C78.5526 79.2827 78.588 79.2914 78.6235 79.2914C72.1046 68.8627 66.9848 57.7863 63.4111 46.3577C63.2894 45.9578 63.5632 45.5492 64.0244 45.4405C64.4857 45.3405 64.9622 45.5709 65.089 45.9708C68.6728 57.4472 73.8332 68.5627 80.418 79.0175C80.4484 79.061 80.4687 79.1044 80.4839 79.1479C80.8793 79.3044 81.1682 79.5478 81.3507 79.7043C81.9032 80.1695 82.6028 80.8128 83.3429 81.5127C81.153 76.9483 79.2521 72.2838 77.6452 67.5455C77.2701 66.9326 76.8848 66.324 76.5097 65.7067C76.4945 65.6762 76.4742 65.6458 76.459 65.6154C76.2968 65.3502 76.1346 65.0807 75.9774 64.8112C74.7558 62.768 73.5797 60.7119 72.4443 58.6339C72.2719 58.3209 72.0996 58.0036 71.9323 57.6906C70.9843 55.9344 70.077 54.1608 69.2102 52.3741C69.0581 52.0698 68.9111 51.7612 68.7641 51.4525C68.5106 50.9265 68.2622 50.4005 68.0189 49.8702C67.512 48.7747 67.0254 47.6662 66.5489 46.5577C66.4019 46.2186 66.2599 45.8752 66.118 45.5361C65.5857 44.2668 65.0788 42.9931 64.6023 41.7107C64.4857 41.4064 64.2576 40.9543 63.9636 40.4674C63.7913 40.1805 63.5986 39.8849 63.3959 39.598C62.3871 38.1808 61.0945 36.9897 60.7346 38.6547C60.6788 38.9242 60.6484 39.2589 60.6433 39.6806C60.6383 39.8501 60.6433 40.0197 60.6433 40.1892C60.7042 42.8496 61.1604 45.5274 61.8903 48.1966C61.9664 48.4661 62.0424 48.7312 62.1185 49.0008C62.23 49.3833 62.3516 49.7615 62.4733 50.1441C62.8687 51.3612 63.3097 52.5784 63.8014 53.7869C63.9281 54.1043 64.0599 54.4216 64.1968 54.7346C64.9014 56.4082 65.6871 58.0645 66.5134 59.7033C68.8046 64.2287 71.4456 68.5975 73.8281 72.662C74.9991 74.6617 76.0788 77.1613 77.6553 79.0479C77.8834 79.2653 78.0963 79.487 78.2991 79.7087Z" fill="#AEC78B"/>
<path d="M90.2927 89.9326C90.166 90.1065 89.9632 90.2108 89.6793 90.2195C90.0899 90.7238 90.4955 91.2281 90.901 91.7367C90.6931 91.1368 90.4853 90.5325 90.2927 89.9326Z" fill="#AEC78B"/>
<path d="M96.0714 94.6059C95.6355 93.993 95.1995 93.3801 94.7636 92.7671C94.5304 92.4367 94.2972 92.1107 94.064 91.7847C93.2378 90.6196 92.4115 89.4546 91.5852 88.2939C92.1935 90.2806 92.8627 92.2542 93.6281 94.206C93.7345 94.4886 93.6382 94.7798 93.4051 94.9754C95.6811 97.9967 97.8456 101.101 99.8327 104.27C99.4373 102.878 99.118 101.474 98.8848 100.062C98.8341 99.7268 99.047 99.4138 99.3866 99.2791C99.3309 99.2008 99.2751 99.1226 99.2193 99.04C98.5097 98.0401 97.8051 97.0403 97.0954 96.0405C97.0447 95.9709 96.994 95.9014 96.9484 95.8318C96.9332 95.8101 96.918 95.7927 96.9027 95.771C96.6239 95.3797 96.3502 94.9928 96.0714 94.6059Z" fill="#AEC78B"/>
<mask id="mask3_8_4" style="mask-type:luminance" maskUnits="userSpaceOnUse" x="100" y="100" width="44" height="57">
<path d="M100.907 100.527H143.432V156.552H100.907V100.527Z" fill="white"/>
</mask>
<g mask="url(#mask3_8_4)">
<path d="M110.468 115.603C110.361 115.764 110.184 115.894 109.961 115.955C109.875 115.977 109.794 115.985 109.707 115.985C109.337 115.985 108.993 115.777 108.876 115.455C108.369 113.994 107.908 112.525 107.487 111.047C105.338 107.821 103.138 104.622 100.907 101.44C102.129 107.274 104.8 112.895 108.688 117.789C108.957 118.128 108.856 118.594 108.46 118.824C108.394 118.863 108.323 118.889 108.253 118.911C108.846 119.493 109.423 120.089 109.991 120.689C112.12 122.471 114.133 124.349 115.998 126.314C116.302 126.636 116.247 127.105 115.871 127.362C115.765 127.44 115.643 127.479 115.517 127.501C115.557 127.562 115.603 127.618 115.643 127.679C117.423 129.9 116.855 130.292 118.32 132.678C117.884 132.57 117.433 132.4 116.971 132.196C120.52 135.408 123.916 138.755 127.115 142.203C127.414 142.524 127.353 142.99 126.978 143.25C126.821 143.359 126.628 143.411 126.441 143.411C126.43 143.411 126.42 143.407 126.41 143.407C130.648 148.323 134.911 153.262 137.755 156.552H143.311C134.014 146.937 125.482 137.486 117.864 126.753C116.987 125.514 116.135 124.267 115.294 123.01C113.656 120.558 112.064 118.076 110.468 115.603Z" fill="#AEC78B"/>
</g>
<path d="M63.3807 87.0855C62.8282 86.6943 62.2655 86.2987 61.7181 85.8813C61.7028 85.8987 61.6927 85.9161 61.6775 85.9335C61.495 86.1117 61.2416 86.1943 60.983 86.1856C62.6356 87.0898 64.2932 87.9897 65.9508 88.8852C65.0941 88.2853 64.2374 87.6854 63.3807 87.0855Z" fill="#AEC78B"/>
<path d="M57.1761 80.0648C57.1508 79.4214 57.2927 78.9041 57.5614 78.4911C55.9088 77.9521 54.2462 77.4521 52.5632 76.987C51.6254 76.7305 50.4291 76.574 49.7093 77.0305C49.5673 77.1218 49.4406 77.2304 49.3392 77.3739C48.7867 78.1781 49.5319 79.1779 50.3074 79.83C51.8535 81.1254 53.6784 82.1514 55.4881 83.1642C57.0088 84.0076 58.5346 84.8379 60.0554 85.6725C58.3268 84.2075 57.2521 82.1514 57.1761 80.0648Z" fill="#AEC78B"/>
<path d="M59.1581 79.1085C59.0415 79.1911 58.9655 79.3693 58.93 79.6127C59.4319 79.4475 60.0655 79.4606 60.6991 79.5736C60.2227 79.3997 59.7411 79.2345 59.2646 79.0693C59.2291 79.0824 59.1835 79.0911 59.1581 79.1085Z" fill="#AEC78B"/>
<path d="M70.7765 83.7776C69.2507 83.0473 67.6995 82.3517 66.1281 81.6953C68.3028 82.6821 70.4217 83.7471 72.4848 84.8861C71.9221 84.5035 71.3544 84.1384 70.7765 83.7776Z" fill="#AEC78B"/>
<path d="M94.7941 117.555C96.4567 118.081 98.089 118.676 99.6858 119.354C100.117 119.537 100.294 119.98 100.081 120.35C99.9291 120.611 99.6249 120.763 99.3107 120.767C99.6199 120.98 99.9291 121.193 100.243 121.411C101.546 122.31 102.864 123.197 104.187 124.071C104.537 124.301 104.887 124.536 105.236 124.766C106.788 125.775 108.344 126.779 109.925 127.757C109.996 127.801 110.067 127.853 110.138 127.896C110.174 127.766 110.235 127.636 110.351 127.531C110.686 127.236 111.233 127.227 111.578 127.514C113.408 129.035 115.207 130.6 116.971 132.196C117.433 132.4 117.884 132.57 118.32 132.678C116.855 130.292 117.423 129.9 115.643 127.679C115.603 127.618 115.557 127.562 115.517 127.501C115.456 127.514 115.39 127.531 115.324 127.531C115.076 127.531 114.822 127.436 114.655 127.257C112.475 124.958 110.093 122.784 107.553 120.75C105.449 119.785 103.65 118.355 102.033 116.729C98.5249 114.403 94.7839 112.338 90.8858 110.586C90.465 110.395 90.2978 109.943 90.5208 109.578C90.7438 109.213 91.266 109.073 91.6918 109.265C94.0236 110.312 96.2945 111.469 98.4996 112.725C97.6024 111.63 96.7305 110.547 95.8485 109.552C95.7065 109.391 95.5696 109.226 95.4277 109.065C93.2784 107.787 91.048 106.609 88.7415 105.552C86.1664 104.374 83.3835 103.318 80.5143 103.096C80.4991 103.161 80.4839 103.222 80.4535 103.287C80.3116 103.566 79.9922 103.735 79.6577 103.735C79.5411 103.735 79.4245 103.713 79.313 103.674C78.9328 103.531 78.6185 103.418 78.3346 103.318C78.3346 103.509 78.36 103.696 78.4208 103.879C78.5171 104.153 78.6743 104.413 78.8669 104.665C79.1153 104.983 79.4093 105.278 79.7185 105.557C79.8047 105.635 79.8908 105.709 79.977 105.783C81.2798 106.909 82.5978 108.017 83.9309 109.113C84.0171 109.186 84.1084 109.256 84.1945 109.33C84.7623 109.799 85.3351 110.26 85.9079 110.721C88.8074 113.06 91.7678 115.342 94.7941 117.555Z" fill="#D6E3A0"/>
<path d="M107.832 118.941C108.567 119.511 109.282 120.097 109.991 120.689C109.424 120.089 108.846 119.493 108.253 118.911C108.161 118.937 108.065 118.954 107.969 118.954C107.923 118.954 107.877 118.95 107.832 118.941Z" fill="#D6E3A0"/>
<path d="M78.664 79.3564C78.6488 79.3346 78.6387 79.3129 78.6235 79.2955C78.588 79.2912 78.5525 79.2825 78.512 79.2868C78.5069 79.352 78.512 79.4129 78.5069 79.4781C78.5221 79.4651 78.5373 79.4477 78.5525 79.4303C78.588 79.3999 78.6286 79.3825 78.664 79.3564Z" fill="#D6E3A0"/>
<path d="M86.2222 86.5555C86.1512 86.5381 86.0853 86.512 86.0194 86.4772C86.0093 86.4729 85.9991 86.4642 85.989 86.4598C85.9383 86.4294 85.8927 86.3946 85.8521 86.3555C85.8369 86.3425 85.8217 86.3338 85.8116 86.3207C85.8014 86.312 85.7913 86.3033 85.7812 86.2946C84.5038 84.8471 81.6498 82.0562 80.1342 80.7608C79.9365 80.5956 79.8047 80.5043 79.7438 80.4956C79.6779 80.5521 79.4955 80.9825 79.5512 81.5172C79.8503 84.4558 80.5701 87.3597 81.7005 90.1462C81.8932 90.4983 82.0959 90.8547 82.3088 91.2069C83.9461 92.4284 85.5328 93.6934 87.0586 95.0106C90.7185 98.1796 94.0286 101.618 96.9282 105.283C99.3563 108.356 98.018 108.76 95.7673 108.178C95.6508 108.226 95.524 108.252 95.3922 108.252C95.1844 108.252 94.9766 108.187 94.8093 108.061C94.6927 107.965 94.571 107.861 94.4494 107.765C94.3733 107.739 94.2973 107.713 94.2213 107.682C94.6217 108.148 95.0222 108.604 95.4277 109.065C95.5697 109.226 95.7065 109.391 95.8485 109.552C96.7305 110.547 97.6024 111.63 98.4996 112.725C101.48 114.42 104.329 116.298 107.021 118.328C103.69 114.06 101.247 109.265 99.8328 104.27C97.8457 101.101 95.6812 97.997 93.4051 94.9758C93.319 95.0497 93.2074 95.1149 93.0807 95.1497C92.9895 95.1758 92.8932 95.1888 92.8019 95.1888C92.442 95.1888 92.1024 94.9932 91.9807 94.6802C91.5955 93.7064 91.2457 92.724 90.901 91.7372C90.4955 91.2286 90.0899 90.72 89.6844 90.2157C89.4157 90.2244 89.0812 90.1549 88.6351 89.9636C87.6263 89.5202 86.866 88.0291 86.2932 86.5685C86.283 86.5685 86.2729 86.5642 86.2627 86.5642C86.2475 86.5598 86.2323 86.5598 86.2222 86.5555Z" fill="#D6E3A0"/>
<path d="M102.033 116.728C103.65 118.354 105.449 119.784 107.553 120.749C105.789 119.341 103.944 117.993 102.033 116.728Z" fill="#D6E3A0"/>
<path d="M77.4931 26.2828C77.0775 26.348 76.6567 26.148 76.5199 25.7959C75.7899 23.9658 74.7609 22.2574 73.448 20.6968C73.2655 21.1402 73.2148 21.6836 73.1844 22.1965C72.5913 32.1514 73.301 42.1454 75.2526 51.9611C75.4756 52.8523 75.7088 53.7434 75.942 54.6346C76.0383 54.9997 76.1346 55.3692 76.2309 55.7344C76.9203 58.3209 77.6452 60.8987 78.4106 63.4679C78.512 63.807 78.6134 64.1417 78.7148 64.4808C79.2065 66.1066 79.7083 67.728 80.2304 69.3495C80.3521 69.719 80.4636 70.0929 80.5853 70.4667C80.8033 71.1275 81.0263 71.7882 81.2493 72.449C82.9881 76.8961 84.9904 81.2649 87.2613 85.5338C87.2715 85.5511 87.2765 85.5642 87.2816 85.5816C87.2968 85.612 87.3069 85.6381 87.3171 85.6685C87.3222 85.6903 87.3272 85.7163 87.3272 85.7381C87.3323 85.7642 87.3374 85.7859 87.3374 85.812C87.3424 85.8381 87.3374 85.8641 87.3374 85.8902C87.3323 85.912 87.3323 85.9337 87.3323 85.9511C87.3272 85.9772 87.3171 86.0032 87.3069 86.0293C87.3019 86.0511 87.2968 86.0728 87.2917 86.0902C87.2816 86.1163 87.2664 86.138 87.2512 86.1641C87.241 86.1815 87.2309 86.2032 87.2208 86.2206C87.2005 86.2467 87.1802 86.2684 87.165 86.2902C87.1498 86.3075 87.1346 86.3249 87.1194 86.338C87.094 86.3641 87.0687 86.3814 87.0383 86.4032C87.0231 86.4119 87.0129 86.4249 86.9977 86.438H86.9927C86.9673 86.4553 86.942 86.464 86.9166 86.4771C86.8913 86.4901 86.8659 86.5075 86.8406 86.5162C86.8355 86.5205 86.8355 86.5206 86.8355 86.5206C86.8203 86.5249 86.8051 86.5249 86.795 86.5292C86.7544 86.5466 86.7088 86.5597 86.6682 86.5684C86.648 86.5727 86.6226 86.5727 86.6023 86.5771C86.5669 86.5814 86.5314 86.5858 86.4959 86.5858C86.4858 86.5858 86.4807 86.5858 86.4756 86.5858C86.4604 86.5858 86.4503 86.5858 86.4401 86.5858C86.3894 86.5814 86.3438 86.5771 86.2931 86.5684C86.8659 88.029 87.6263 89.52 88.6351 89.9635C89.0761 90.1547 89.4157 90.2243 89.6793 90.2156C89.9632 90.2069 90.1609 90.1069 90.2927 89.9287C86.7291 78.8392 85.5226 67.2672 84.3516 56.0343C84.3364 55.9083 84.3669 55.7909 84.4175 55.6822C84.4074 55.6301 84.3922 55.5736 84.3821 55.517C83.4696 50.9526 82.5268 46.3881 81.5535 41.8324C80.5701 37.2288 79.5461 32.6209 78.1014 28.1086C77.924 27.5522 77.7415 26.9957 77.5489 26.4436C77.5337 26.3915 77.5134 26.3393 77.4931 26.2828Z" fill="#D6E3A0"/>
<path d="M73.1438 93.9192C73.448 94.1279 73.7521 94.3409 74.0562 94.5539C75.0143 95.2233 75.9673 95.8928 76.9254 96.5622C77.2245 96.7709 77.5235 96.9839 77.8226 97.1926C78.9784 97.9968 80.1291 98.8053 81.2798 99.6139C81.594 99.8312 81.9033 100.049 82.2125 100.266C82.6028 100.535 82.988 100.809 83.3784 101.079C85.3553 102.466 87.3374 103.848 89.3143 105.235C90.3281 105.943 92.3558 106.987 94.2212 107.682C94.2973 107.713 94.3733 107.739 94.4493 107.765C88.995 103.418 83.5609 96.9535 80.1899 90.898C77.7567 88.807 75.2069 86.7334 72.4848 84.8859C70.4217 83.747 68.3028 82.6819 66.1281 81.6908C64.8152 81.0953 63.4821 80.5214 62.1286 79.9824C61.6977 79.8129 61.2009 79.6607 60.6991 79.5738C60.0655 79.4607 59.4318 79.4477 58.93 79.6129C58.9148 79.7346 58.9046 79.865 58.9097 80.0215C58.9807 81.856 59.9844 83.6731 61.5963 84.8816C61.936 85.1381 61.9816 85.5728 61.718 85.8814C62.2655 86.2944 62.8281 86.6943 63.3857 87.0856C64.2374 87.6855 65.094 88.2854 65.9507 88.8809C66.412 89.2026 66.8682 89.5243 67.3295 89.846C67.5627 90.0112 67.8009 90.1763 68.0392 90.3415C69.7424 91.5326 71.4406 92.7237 73.1438 93.9192Z" fill="#D6E3A0"/>
<path d="M95.9802 106.956C96.335 107.234 96.3604 107.704 96.0359 108.008C95.9599 108.082 95.8636 108.138 95.7673 108.178C98.018 108.76 99.3562 108.356 96.9281 105.282C94.0286 101.618 90.7184 98.1793 87.0585 95.0146C85.5327 93.6931 83.9461 92.4281 82.3087 91.2065C85.6797 96.9491 90.8401 102.952 95.9802 106.956Z" fill="#D6E3A0"/>
<path d="M107.487 111.047C107.908 112.525 108.369 113.994 108.876 115.455C108.993 115.776 109.337 115.985 109.707 115.985C109.794 115.985 109.875 115.976 109.961 115.954C110.184 115.894 110.361 115.763 110.468 115.598C110.579 115.428 110.61 115.224 110.539 115.024C107.071 105.091 105.688 94.8102 106.433 84.4597C106.463 84.0511 106.098 83.6947 105.617 83.6729C105.115 83.6425 104.73 83.9598 104.699 84.3685C104.679 84.6249 104.669 84.8814 104.654 85.1379C104.654 85.1422 104.654 85.1466 104.654 85.1509C104.111 93.8886 105.064 102.578 107.487 111.047Z" fill="#16213D"/>
<path d="M78.8618 87.6983C78.9328 87.7592 79.0088 87.8157 79.0798 87.8766C79.0443 87.7592 79.0189 87.6462 78.9834 87.5288C78.9328 87.581 78.8922 87.6375 78.8618 87.6983Z" fill="#16213D"/>
<path d="M95.3922 108.252C95.524 108.252 95.6508 108.226 95.7674 108.178C95.8637 108.139 95.96 108.082 96.036 108.008C96.3604 107.704 96.3351 107.234 95.9752 106.956C90.8402 102.953 85.6798 96.9492 82.3038 91.2067C82.0959 90.8546 81.8932 90.4981 81.7005 90.146C81.7056 90.1677 81.7157 90.1895 81.7208 90.2112C81.8577 90.5372 81.7056 90.9024 81.366 91.0893C81.224 91.1632 81.0618 91.2023 80.9047 91.2023C80.6766 91.2023 80.4586 91.1284 80.2913 90.9806C80.2558 90.9546 80.2254 90.9285 80.1899 90.898C83.5609 96.9536 88.995 103.418 94.4494 107.765C94.566 107.86 94.6876 107.965 94.8093 108.06C94.9766 108.191 95.1844 108.252 95.3922 108.252Z" fill="#16213D"/>
<path d="M71.248 29.3688C71.2581 31.6337 71.324 33.8942 71.4609 36.159C71.4862 36.5111 71.5065 36.8632 71.5319 37.2154C71.6231 38.5195 71.7346 39.8236 71.8715 41.1234C71.912 41.5277 71.9526 41.932 71.9982 42.3362C72.277 44.7663 72.6268 47.1876 73.0526 49.6002C73.1134 49.9437 73.1692 50.2871 73.2351 50.6262C73.5595 52.3737 73.9245 54.1125 74.3249 55.8514C74.4111 56.2252 74.4973 56.6034 74.5835 56.9773C75.1918 59.4812 75.8761 61.9677 76.6415 64.4412C76.7429 64.776 76.8494 65.115 76.9558 65.4498C77.1789 66.1496 77.412 66.8495 77.6452 67.5494C79.2521 72.2834 81.1531 76.9478 83.3429 81.5123C84.7471 82.8469 86.2881 84.3988 87.165 85.3943C87.2157 85.4508 87.2512 85.516 87.2816 85.5812C87.2766 85.5638 87.2715 85.5508 87.2613 85.5334C84.9954 81.2645 82.9881 76.8957 81.2494 72.4486C81.001 71.8096 80.7577 71.1705 80.5194 70.5272C80.3825 70.1664 80.2558 69.8056 80.124 69.4448C79.5461 67.8407 78.9936 66.2279 78.4867 64.6064C78.3802 64.2674 78.2789 63.9283 78.1775 63.5936C77.3918 61.0244 76.6973 58.4422 76.089 55.8427C76.0028 55.4645 75.9116 55.0906 75.8305 54.7168C75.6226 53.7995 75.4351 52.8823 75.2526 51.9607C73.301 42.145 72.5913 32.151 73.1844 22.1961C73.2148 21.6832 73.2655 21.1398 73.4531 20.6964C74.7609 22.257 75.7899 23.9697 76.5199 25.7955C76.6567 26.1476 77.0775 26.3476 77.4931 26.2824C77.5337 26.2781 77.5793 26.2694 77.6199 26.2563C77.8074 26.2042 77.9595 26.0955 78.0609 25.9607C78.2028 25.7781 78.2484 25.5391 78.1623 25.313C78.1217 25.213 78.0761 25.1174 78.0355 25.0217C77.118 22.8308 75.8051 20.7964 74.107 18.9749C73.813 18.6576 73.2706 18.6011 72.8955 18.8532C72.5913 19.0575 72.3581 19.3053 72.1706 19.5661C71.5572 20.4225 71.4913 21.4789 71.4508 22.1222C71.3595 23.6568 71.3037 25.1913 71.2733 26.7258C71.2632 27.217 71.2531 27.7039 71.248 28.1951C71.248 28.5864 71.248 28.9776 71.248 29.3688Z" fill="#16213D"/>
<path d="M86.8355 86.5205C86.8355 86.5205 86.8355 86.5205 86.8405 86.5205C86.8253 86.5249 86.8101 86.5292 86.7949 86.5335C86.8101 86.5292 86.8203 86.5249 86.8355 86.5205Z" fill="#16213D"/>
<path d="M87.3171 85.6685C87.3223 85.6902 87.3275 85.7163 87.3275 85.7424C87.3275 85.7163 87.3223 85.6945 87.3171 85.6685Z" fill="#16213D"/>
<path d="M86.4756 86.5907C86.4807 86.5907 86.4908 86.5854 86.4959 86.5854C86.4807 86.5854 86.4604 86.5854 86.4402 86.5854C86.4554 86.5854 86.4655 86.5907 86.4756 86.5907Z" fill="#16213D"/>
<path d="M61.6775 85.9337C61.6927 85.9164 61.7028 85.899 61.718 85.8816C61.9816 85.5729 61.936 85.1382 61.5964 84.8817C59.9844 83.6733 58.9807 81.8562 58.9097 80.0217C58.9047 79.8652 58.9148 79.7348 58.93 79.6131C58.9655 79.3696 59.0415 79.1914 59.1581 79.1088C59.1835 79.0914 59.2291 79.0827 59.2646 79.0697C59.4927 78.9871 59.8881 79.0175 60.4761 79.174C64.2019 80.1608 67.6083 81.7953 70.7765 83.7776C71.3544 84.1384 71.9222 84.5036 72.4848 84.8861C75.207 86.7336 77.7567 88.8072 80.1899 90.8981C80.2254 90.9286 80.2558 90.9546 80.2913 90.9807C80.4586 91.1285 80.6816 91.2024 80.9047 91.2024C81.0618 91.2024 81.224 91.1633 81.3659 91.0894C81.7056 90.9025 81.8576 90.5373 81.7208 90.2113C81.7157 90.1896 81.7056 90.1678 81.7005 90.1461C80.5701 87.3596 79.8503 84.4557 79.5512 81.5171C79.4954 80.9824 79.6779 80.552 79.7438 80.4955C79.8047 80.5042 79.9364 80.5955 80.1291 80.765C81.6498 82.0561 84.5037 84.847 85.7811 86.2946C85.7913 86.3033 85.8014 86.3119 85.8116 86.3206C85.8217 86.3337 85.8369 86.3424 85.8521 86.3554C85.8927 86.3945 85.9383 86.4293 85.989 86.4597C85.9991 86.4641 86.0093 86.4728 86.0194 86.4771C86.0853 86.5119 86.1512 86.538 86.2171 86.5554C86.2323 86.5597 86.2475 86.5597 86.2627 86.5641C86.2729 86.5641 86.283 86.5684 86.2931 86.5684C86.3438 86.5771 86.3894 86.5815 86.4401 86.5858C86.4604 86.5858 86.4756 86.5858 86.4959 86.5858C86.5314 86.5858 86.5669 86.5815 86.6023 86.5771C86.6226 86.5728 86.648 86.5728 86.6682 86.5684C86.7139 86.5597 86.7544 86.5467 86.795 86.5336C86.8102 86.525 86.8254 86.525 86.8406 86.5206C86.8659 86.5076 86.8913 86.4902 86.9166 86.4771C86.942 86.4641 86.9673 86.4554 86.9927 86.438C86.9927 86.438 86.9927 86.438 86.9977 86.438C87.0129 86.425 87.0231 86.4163 87.0383 86.4032C87.0687 86.3815 87.0941 86.3641 87.1194 86.338C87.1346 86.325 87.1498 86.3076 87.1599 86.2902C87.1802 86.2685 87.2005 86.2467 87.2208 86.225C87.2309 86.2033 87.2411 86.1815 87.2512 86.1641C87.2664 86.1424 87.2765 86.1163 87.2867 86.0946C87.2968 86.0729 87.3019 86.0511 87.307 86.0294C87.3171 86.0076 87.3272 85.9816 87.3323 85.9555C87.3323 85.9337 87.3323 85.912 87.3374 85.8903C87.3374 85.8642 87.3424 85.8381 87.3374 85.812C87.3374 85.7859 87.3323 85.7642 87.3272 85.7425C87.3222 85.7164 87.3222 85.6947 87.3171 85.6686C87.307 85.6381 87.2917 85.6121 87.2816 85.5816C87.2512 85.5164 87.2157 85.4512 87.165 85.3947C86.2881 84.3992 84.747 82.8473 83.3429 81.5127C82.6028 80.8129 81.8982 80.1695 81.3507 79.7044C81.1682 79.5479 80.8742 79.3044 80.4839 79.1479C80.6056 79.4827 80.4383 79.8522 80.0682 80.026C79.9364 80.0869 79.7945 80.1173 79.6576 80.1173C79.3484 80.1173 79.0494 79.9739 78.8922 79.7261C78.8162 79.6044 78.7401 79.4783 78.6641 79.3566C78.6235 79.3827 78.5881 79.4044 78.5526 79.4305C78.5374 79.4479 78.5222 79.4653 78.507 79.4783C78.4258 79.5522 78.3599 79.6261 78.2941 79.7087C78.289 79.7174 78.2839 79.7217 78.2788 79.7304C77.8632 80.2912 77.7618 81.052 77.8176 81.6475C77.8226 81.6736 77.8277 81.6953 77.8277 81.7214C78.2738 82.1865 78.7199 82.6517 79.1558 83.1212C79.46 83.4385 79.3991 83.908 79.024 84.1688C78.8669 84.2775 78.6742 84.334 78.4816 84.334C78.3904 84.334 78.2941 84.3166 78.2079 84.2905C78.2586 84.5557 78.3093 84.8209 78.36 85.0861C78.365 85.0948 78.365 85.1035 78.3701 85.1121C78.5424 85.9251 78.7452 86.7293 78.9784 87.5291C79.0139 87.6465 79.0443 87.7595 79.0798 87.8769C79.0037 87.816 78.9328 87.7595 78.8567 87.6987C73.6609 83.4559 67.8821 79.5739 60.983 77.7482C60.4609 77.6134 59.0871 77.2482 58.0682 77.9481C57.8553 78.0916 57.6931 78.2829 57.5563 78.4915C57.2876 78.9045 57.1507 79.4218 57.1761 80.0652C57.2521 82.1518 58.3217 84.2079 60.0503 85.6729C60.1821 85.7816 60.3088 85.899 60.4507 86.0033C60.6028 86.1207 60.7904 86.1772 60.983 86.1859C61.2415 86.1946 61.495 86.112 61.6775 85.9337Z" fill="#16213D"/>
<path d="M100.081 120.35C100.294 119.984 100.117 119.537 99.6857 119.354C98.0889 118.676 96.4567 118.08 94.794 117.554C91.0023 116.35 87.0535 115.533 83.0032 115.137C82.5267 115.09 82.1009 115.385 82.0452 115.794C82.03 115.92 82.0502 116.042 82.1009 116.15C82.2175 116.398 82.476 116.589 82.8106 116.62C85.6493 116.898 88.4373 117.385 91.1544 118.076C91.5346 118.172 91.9147 118.28 92.2899 118.385C93.1009 118.611 93.9069 118.85 94.7028 119.111C95.0677 119.232 95.4327 119.358 95.7977 119.489C96.847 119.858 97.8912 120.254 98.9152 120.689C98.9811 120.715 99.047 120.736 99.1129 120.75C99.1737 120.758 99.2396 120.767 99.3005 120.767H99.3055C99.6249 120.763 99.929 120.61 100.081 120.35Z" fill="#16213D"/>
<path d="M72.8447 102.474C73.0221 102.492 73.2096 102.505 73.3769 102.518C76.3576 102.77 77.0824 102.883 78.3345 103.318C78.6184 103.417 78.9327 103.531 79.3129 103.674C79.4244 103.713 79.541 103.735 79.6576 103.735C79.9921 103.735 80.3115 103.565 80.4534 103.287C80.4838 103.222 80.499 103.161 80.5092 103.096C80.5649 102.77 80.3672 102.439 80.0023 102.305C77.4474 101.353 77.341 101.344 71.7751 100.892C71.2935 100.848 70.8778 101.153 70.8322 101.561C70.817 101.7 70.8474 101.835 70.9133 101.953C70.9944 102.096 71.1262 102.218 71.2935 102.292C71.3898 102.335 71.4963 102.365 71.6129 102.374C72.064 102.409 72.4645 102.444 72.8447 102.474Z" fill="#16213D"/>
<path d="M69.7272 97.3013C72.9157 97.8925 75.9318 98.9489 78.6945 100.44C78.8364 100.518 78.9986 100.557 79.1558 100.557C79.4447 100.557 79.7286 100.431 79.8908 100.21C79.977 100.088 80.0175 99.9574 80.0226 99.827C80.0277 99.5749 79.8857 99.3227 79.6171 99.1793C78.8415 98.7576 78.0406 98.3751 77.2244 98.0186C76.8797 97.8665 76.53 97.723 76.1802 97.5839C75.1055 97.1579 74.0005 96.7971 72.8751 96.4841C72.5 96.3841 72.13 96.2885 71.7498 96.2015C71.2023 96.0711 70.6549 95.9494 70.0973 95.8451C69.6917 95.7668 69.3014 95.945 69.1291 96.2493C69.1037 96.3015 69.0784 96.358 69.0632 96.4145C69.0581 96.4363 69.0581 96.458 69.053 96.4797C68.9973 96.8579 69.2862 97.2187 69.7272 97.3013Z" fill="#16213D"/>
<path d="M107.832 118.941C107.604 118.911 107.391 118.806 107.254 118.628C107.173 118.533 107.097 118.428 107.021 118.328C104.329 116.298 101.48 114.42 98.4995 112.725C96.2944 111.468 94.0234 110.312 91.6916 109.264C91.2658 109.073 90.7437 109.212 90.5207 109.577C90.2976 109.943 90.4649 110.395 90.8857 110.586C94.7838 112.338 98.5248 114.403 102.033 116.728C103.944 117.993 105.789 119.337 107.553 120.75C110.093 122.784 112.475 124.958 114.65 127.253C114.822 127.435 115.076 127.531 115.324 127.531C115.39 127.531 115.456 127.514 115.517 127.501C115.643 127.479 115.765 127.435 115.871 127.361C116.246 127.101 116.302 126.631 115.998 126.314C114.133 124.345 112.12 122.471 109.991 120.689C109.282 120.097 108.567 119.511 107.832 118.941Z" fill="#16213D"/>
<path d="M91.9807 94.6802C92.1023 94.9932 92.442 95.1888 92.8019 95.1888C92.8931 95.1888 92.9894 95.1757 93.0807 95.1496C93.2074 95.1149 93.3189 95.054 93.4051 94.9758C93.6383 94.7845 93.7346 94.4889 93.6231 94.2063C92.8627 92.2545 92.1885 90.2809 91.5853 88.2943C91.3876 87.6422 91.195 86.9901 91.0125 86.3381C90.8908 85.8947 90.7641 85.4556 90.6475 85.0122C90.4802 84.3688 90.318 83.7211 90.1609 83.0734C90.0645 82.6778 89.9682 82.2779 89.877 81.878C89.4867 80.1782 89.1369 78.4742 88.8175 76.7614C88.7415 76.3441 88.6655 75.9311 88.5945 75.5138C88.483 74.9052 88.3867 74.2923 88.2853 73.6837C88.2245 73.3142 88.1636 72.949 88.1079 72.5839C87.7125 70.0365 87.3728 67.4847 87.0687 64.9373C87.018 64.5243 86.9724 64.1114 86.9268 63.7027C86.8102 62.7072 86.6986 61.7118 86.5871 60.7206C86.5516 60.3685 86.5162 60.0164 86.4756 59.6643C86.3438 58.408 86.212 57.1517 86.0802 55.8997C86.0346 55.4911 85.6189 55.1911 85.1374 55.2259C84.8028 55.252 84.5341 55.4389 84.4175 55.6867C84.3669 55.791 84.3364 55.9127 84.3516 56.0344C85.5226 67.2717 86.7291 78.8393 90.2927 89.9331C90.4853 90.5374 90.6931 91.1373 90.901 91.7372C91.2406 92.724 91.5954 93.7064 91.9807 94.6802Z" fill="#16213D"/>
<path d="M79.0291 84.1686C79.3992 83.9078 79.46 83.4383 79.1609 83.121C78.7199 82.6515 78.2789 82.1863 77.8328 81.7212C60.6941 63.8807 38.7195 49.4657 14.1545 39.976C13.7185 39.8065 13.2015 39.976 13.0089 40.3499C12.8112 40.7281 13.0038 41.1671 13.4448 41.3367C38.395 50.9742 60.6536 65.7456 77.8075 84.0556C77.9139 84.1686 78.0559 84.2469 78.2079 84.2903C78.2992 84.3121 78.3904 84.3295 78.4867 84.3295C78.6743 84.3338 78.8669 84.2773 79.0291 84.1686Z" fill="#16213D"/>
<path d="M78.8922 79.7259C79.0493 79.9736 79.3484 80.1171 79.6576 80.1171C79.7945 80.1171 79.9364 80.0867 80.0682 80.0258C80.4383 79.8519 80.6056 79.4824 80.4839 79.1477C80.4687 79.1042 80.4484 79.0607 80.418 79.0173C73.8332 68.5625 68.6728 57.447 65.089 45.9706C64.9673 45.5707 64.4908 45.3403 64.0244 45.4403C63.5632 45.549 63.2894 45.9576 63.4111 46.3575C66.9848 57.786 72.1046 68.8624 78.6235 79.2955C78.6387 79.3129 78.6489 79.3346 78.6641 79.3563C78.7401 79.4781 78.8162 79.6041 78.8922 79.7259Z" fill="#16213D"/>
<path d="M67.7554 30.8426L67.6489 30.1906L67.0711 26.6998L66.9089 25.7087L65.3374 16.1668L65.2867 15.8843C65.2411 15.6104 65.0282 15.3974 64.7545 15.3017C64.6176 15.2496 64.4655 15.2278 64.3084 15.2496C63.9536 15.293 63.6798 15.5148 63.5886 15.7973C63.5632 15.8886 63.5531 15.9886 63.5683 16.0929L63.695 16.858L65.2259 26.1173L65.3881 27.1085L66.037 31.0469C66.042 31.0774 66.0623 31.1035 66.0674 31.1295C66.1688 31.4556 66.5033 31.6903 66.8936 31.6903C66.9342 31.6903 66.9798 31.686 67.0204 31.6816C67.1066 31.6729 67.1877 31.6468 67.2637 31.6164C67.36 31.5773 67.4462 31.5251 67.5172 31.4599C67.6996 31.3034 67.796 31.0774 67.7554 30.8426Z" fill="#16213D"/>
<path d="M107.021 118.328C107.097 118.428 107.173 118.532 107.254 118.632C107.391 118.806 107.604 118.91 107.827 118.941C107.877 118.95 107.923 118.954 107.969 118.954C108.065 118.954 108.161 118.937 108.253 118.91C108.323 118.889 108.394 118.863 108.46 118.824C108.856 118.593 108.957 118.128 108.688 117.789C104.8 112.894 102.129 107.273 100.907 101.439C100.796 100.913 100.689 100.383 100.603 99.8528C100.537 99.4442 100.101 99.1616 99.6249 99.2181C99.5387 99.2312 99.4627 99.2529 99.3866 99.2833C99.047 99.4137 98.829 99.7267 98.8848 100.061C99.118 101.474 99.4373 102.878 99.8276 104.269C101.247 109.269 103.69 114.059 107.021 118.328Z" fill="#16213D"/>
<path d="M126.978 143.246C127.353 142.989 127.414 142.52 127.115 142.198C123.916 138.755 120.515 135.408 116.971 132.195C115.207 130.6 113.408 129.035 111.578 127.514C111.233 127.227 110.686 127.235 110.351 127.531C110.235 127.635 110.174 127.766 110.138 127.896C110.082 128.14 110.148 128.4 110.371 128.583C110.371 128.583 110.371 128.587 110.376 128.587C110.843 128.979 111.309 129.374 111.776 129.77C112.576 130.448 113.367 131.135 114.158 131.83C114.538 132.169 114.918 132.508 115.299 132.852C115.897 133.391 116.495 133.934 117.083 134.482C117.985 135.312 118.872 136.156 119.754 137.003C121.138 138.347 122.497 139.707 123.825 141.085C124.332 141.611 124.834 142.142 125.325 142.672C125.376 142.724 125.427 142.776 125.472 142.828C125.569 142.928 125.665 143.028 125.756 143.128C125.923 143.307 126.167 143.402 126.41 143.407C126.42 143.407 126.43 143.411 126.435 143.411C126.628 143.411 126.821 143.359 126.978 143.246Z" fill="#16213D"/>
</svg>
