<svg width="208" height="208" viewBox="0 0 208 208" fill="none" xmlns="http://www.w3.org/2000/svg">
<path d="M207.188 103.937C207.188 105.63 207.146 107.323 207.063 109.015C206.979 110.708 206.854 112.396 206.688 114.078C206.521 115.765 206.318 117.443 206.068 119.12C205.818 120.792 205.531 122.458 205.198 124.12C204.87 125.781 204.5 127.432 204.089 129.073C203.677 130.719 203.224 132.349 202.734 133.969C202.24 135.588 201.708 137.193 201.141 138.786C200.568 140.38 199.958 141.963 199.313 143.526C198.667 145.088 197.979 146.635 197.255 148.167C196.531 149.698 195.771 151.208 194.974 152.703C194.172 154.193 193.339 155.667 192.469 157.12C191.599 158.573 190.693 160 189.755 161.411C188.813 162.818 187.839 164.203 186.828 165.562C185.823 166.922 184.781 168.255 183.708 169.562C182.63 170.87 181.526 172.151 180.391 173.406C179.255 174.661 178.089 175.885 176.891 177.083C175.693 178.281 174.469 179.448 173.214 180.583C171.958 181.724 170.677 182.828 169.37 183.901C168.057 184.974 166.724 186.015 165.365 187.026C164.005 188.036 162.62 189.01 161.214 189.948C159.807 190.89 158.375 191.797 156.922 192.667C155.474 193.536 154 194.37 152.505 195.167C151.016 195.963 149.5 196.729 147.969 197.453C146.443 198.177 144.896 198.859 143.328 199.51C141.766 200.156 140.188 200.765 138.594 201.333C137 201.906 135.391 202.437 133.771 202.927C132.151 203.422 130.521 203.87 128.88 204.281C127.234 204.693 125.583 205.062 123.927 205.396C122.266 205.724 120.599 206.015 118.922 206.26C117.25 206.51 115.568 206.719 113.885 206.885C112.198 207.052 110.51 207.177 108.818 207.26C107.13 207.338 105.438 207.38 103.745 207.38C102.052 207.38 100.359 207.338 98.6667 207.26C96.9792 207.177 95.2917 207.052 93.6042 206.885C91.9219 206.719 90.2396 206.51 88.5677 206.26C86.8907 206.015 85.224 205.724 83.5625 205.396C81.9011 205.062 80.25 204.693 78.6094 204.281C76.9688 203.87 75.3334 203.422 73.7136 202.927C72.0938 202.437 70.4896 201.906 68.8959 201.333C67.3021 200.765 65.724 200.156 64.1563 199.51C62.5938 198.859 61.0469 198.177 59.5157 197.453C57.9844 196.729 56.474 195.963 54.9792 195.167C53.4896 194.37 52.0157 193.536 50.5625 192.667C49.1094 191.797 47.6823 190.89 46.2761 189.948C44.8646 189.01 43.4844 188.036 42.125 187.026C40.7657 186.015 39.4271 184.974 38.1198 183.901C36.8125 182.828 35.5313 181.724 34.2761 180.583C33.0209 179.448 31.7969 178.281 30.599 177.083C29.4011 175.885 28.2344 174.661 27.099 173.406C25.9584 172.151 24.8542 170.87 23.7813 169.562C22.7084 168.255 21.6667 166.922 20.6563 165.562C19.6511 164.203 18.6771 162.818 17.7344 161.411C16.7917 160 15.8907 158.573 15.0157 157.12C14.1459 155.667 13.3125 154.193 12.5157 152.703C11.7188 151.208 10.9584 149.698 10.2344 148.167C9.51046 146.635 8.82296 145.088 8.17712 143.526C7.52608 141.963 6.91671 140.38 6.349 138.786C5.77608 137.193 5.24483 135.588 4.75525 133.969C4.26567 132.349 3.81254 130.719 3.40108 129.073C2.98963 127.432 2.61983 125.781 2.2865 124.12C1.95837 122.458 1.66671 120.792 1.42192 119.12C1.17192 117.443 0.963582 115.765 0.796916 114.078C0.635457 112.396 0.510457 110.708 0.427124 109.015C0.343791 107.323 0.302124 105.63 0.302124 103.937C0.302124 102.245 0.343791 100.557 0.427124 98.8644C0.510457 97.1717 0.635457 95.4842 0.796916 93.8019C0.963582 92.1144 1.17192 90.4373 1.42192 88.7603C1.66671 87.0884 1.95837 85.4165 2.2865 83.7603C2.61983 82.0988 2.98963 80.4478 3.40108 78.8071C3.81254 77.1613 4.26567 75.5311 4.75525 73.9113C5.24483 72.2915 5.77608 70.6821 6.349 69.0884C6.91671 67.4946 7.52608 65.9165 8.17712 64.354C8.82296 62.7915 9.51046 61.2446 10.2344 59.7134C10.9584 58.1821 11.7188 56.6717 12.5157 55.1769C13.3125 53.6821 14.1459 52.2134 15.0157 50.7603C15.8907 49.3071 16.7917 47.8748 17.7344 46.4686C18.6771 45.0623 19.6511 43.6769 20.6563 42.3175C21.6667 40.9582 22.7084 39.6248 23.7813 38.3175C24.8542 37.005 25.9584 35.7238 27.099 34.4738C28.2344 33.2186 29.4011 31.9894 30.599 30.7967C31.7969 29.5988 33.0209 28.4321 34.2761 27.2915C35.5313 26.1561 36.8125 25.0519 38.1198 23.979C39.4271 22.9009 40.7657 21.8592 42.125 20.854C43.4844 19.8436 44.8646 18.8696 46.2761 17.9321C47.6823 16.9894 49.1094 16.0832 50.5625 15.2134C52.0157 14.3436 53.4896 13.5103 54.9792 12.7134C56.474 11.9113 57.9844 11.1509 59.5157 10.4269C61.0469 9.70296 62.5938 9.02067 64.1563 8.36963C65.724 7.7238 67.3021 7.11442 68.8959 6.5415C70.4896 5.9738 72.0938 5.44254 73.7136 4.95296C75.3334 4.45817 76.9688 4.01025 78.6094 3.5988C80.25 3.18734 81.9011 2.81234 83.5625 2.48421C85.224 2.15609 86.8907 1.86442 88.5677 1.61442C90.2396 1.36963 91.9219 1.1613 93.6042 0.994629C95.2917 0.827962 96.9792 0.702962 98.6667 0.619629C100.359 0.536296 102.052 0.494629 103.745 0.494629C105.438 0.494629 107.13 0.536296 108.818 0.619629C110.51 0.702962 112.198 0.827962 113.885 0.994629C115.568 1.1613 117.25 1.36963 118.922 1.61442C120.599 1.86442 122.266 2.15609 123.927 2.48421C125.583 2.81234 127.234 3.18734 128.88 3.5988C130.521 4.01025 132.151 4.45817 133.771 4.95296C135.391 5.44254 137 5.9738 138.594 6.5415C140.188 7.11442 141.766 7.7238 143.328 8.36963C144.896 9.02067 146.443 9.70296 147.969 10.4269C149.5 11.1509 151.016 11.9113 152.505 12.7134C154 13.5103 155.474 14.3436 156.922 15.2134C158.375 16.0832 159.807 16.9894 161.214 17.9321C162.62 18.8696 164.005 19.8436 165.365 20.854C166.724 21.8592 168.057 22.9009 169.37 23.979C170.677 25.0519 171.958 26.1561 173.214 27.2915C174.469 28.4321 175.693 29.5988 176.891 30.7967C178.089 31.9894 179.255 33.2186 180.391 34.4738C181.526 35.7238 182.63 37.005 183.708 38.3175C184.781 39.6248 185.823 40.9582 186.828 42.3175C187.839 43.6769 188.813 45.0623 189.755 46.4686C190.693 47.8748 191.599 49.3071 192.469 50.7603C193.339 52.2134 194.172 53.6821 194.974 55.1769C195.771 56.6717 196.531 58.1821 197.255 59.7134C197.979 61.2446 198.667 62.7915 199.313 64.354C199.958 65.9165 200.568 67.4946 201.141 69.0884C201.708 70.6821 202.24 72.2915 202.734 73.9113C203.224 75.5311 203.677 77.1613 204.089 78.8071C204.5 80.4478 204.87 82.0988 205.198 83.7603C205.531 85.4165 205.818 87.0884 206.068 88.7603C206.318 90.4373 206.521 92.1144 206.688 93.8019C206.854 95.4842 206.979 97.1717 207.063 98.8644C207.146 100.557 207.188 102.245 207.188 103.937Z" fill="#51B056"/>
<path d="M75.2291 68.771V139.109C75.2291 142.688 79.1718 144.87 82.2031 142.964L138.156 107.792C140.995 106.005 140.995 101.87 138.156 100.083L82.2031 64.9168C79.1718 63.0105 75.2291 65.1928 75.2291 68.771Z" fill="#141311"/>
</svg>
